<svg width="872" height="872" viewBox="0 0 872 872" fill="none" xmlns="http://www.w3.org/2000/svg">
<path d="M91.3507 466.102C91.3507 466.102 95.327 585.478 193.584 656.651C291.841 727.824 428.012 721.597 538.198 719.435C648.384 717.272 732.899 646.466 745.508 549.412C758.117 452.359 673.899 431.588 628.049 326.407C582.199 221.226 586.193 184.969 489.471 126.283C392.749 67.5975 241.683 122.185 162.593 244.16C83.5027 366.135 91.3507 466.102 91.3507 466.102Z" fill="#00A7E3"/>
<path opacity="0.7" d="M91.3507 466.102C91.3507 466.102 95.327 585.478 193.584 656.651C291.841 727.824 428.012 721.597 538.198 719.435C648.384 717.272 732.899 646.466 745.508 549.412C758.117 452.359 673.899 431.588 628.049 326.407C582.199 221.226 586.193 184.969 489.471 126.283C392.749 67.5975 241.683 122.185 162.593 244.16C83.5027 366.135 91.3507 466.102 91.3507 466.102Z" fill="white"/>
<path d="M654 265.193C652.082 267.407 650.788 270.091 650.25 272.971L642.769 277.174V257.31L642.908 257.502L654.855 248.782C659.147 249.435 663.537 248.753 667.429 246.828C673.568 243.532 678.032 232.214 678.032 232.214C678.032 232.214 663.418 230.557 658.465 236.696C655.757 239.877 654.311 243.942 654.401 248.119L642.769 256.647V241.98C644.947 240.964 646.873 239.476 648.405 237.624C649.937 235.772 651.038 233.602 651.628 231.272C653.756 223.023 642.437 206.751 642.437 206.751C642.437 206.751 630.63 223.476 633.072 231.952C633.626 234.23 634.734 236.336 636.298 238.082C637.862 239.828 639.833 241.161 642.036 241.963V273.808L633.63 266.832C633.814 264.607 633.523 262.368 632.777 260.264C632.032 258.16 630.848 256.237 629.305 254.624C623.654 248.258 608.569 248.729 608.569 248.729C608.569 248.729 614.934 261.461 620.341 265.698C625.085 269.413 631.625 267.896 633.194 267.442L642.036 274.82V284.481H628.904L634.258 318.001H650.355L655.709 284.481H642.838V278.081L651.07 273.477C655.343 274.704 659.914 274.364 663.958 272.517C668.6 269.872 672.686 266.354 675.992 262.158C675.992 262.158 660.104 258.112 654 265.193Z" fill="#00A7E3"/>
<path d="M555.08 198.45H378.448V212.803H555.08V198.45Z" fill="white"/>
<path d="M555.08 219.971H378.448V234.324H555.08V219.971Z" fill="white"/>
<path d="M555.08 241.492H378.448V255.845H555.08V241.492Z" fill="white"/>
<path d="M555.08 263.03H378.448V277.383H555.08V263.03Z" fill="white"/>
<path d="M555.08 284.551H378.448V298.904H555.08V284.551Z" fill="white"/>
<path d="M555.08 306.072H378.448V320.425H555.08V306.072Z" fill="white"/>
<path d="M555.08 327.593H378.448V341.946H555.08V327.593Z" fill="white"/>
<path d="M555.08 349.114H378.448V363.467H555.08V349.114Z" fill="white"/>
<path d="M555.08 370.635H378.448V384.988H555.08V370.635Z" fill="white"/>
<path d="M555.08 392.156H378.448V406.509H555.08V392.156Z" fill="white"/>
<path d="M555.08 413.677H378.448V428.03H555.08V413.677Z" fill="white"/>
<path d="M555.08 435.198H378.448V449.551H555.08V435.198Z" fill="white"/>
<path d="M555.08 456.736H378.448V471.089H555.08V456.736Z" fill="white"/>
<path d="M366.763 198.45H190.131V212.803H366.763V198.45Z" fill="white"/>
<path d="M366.763 219.971H190.131V234.324H366.763V219.971Z" fill="white"/>
<path d="M366.763 241.492H190.131V255.845H366.763V241.492Z" fill="white"/>
<path d="M366.763 263.03H190.131V277.383H366.763V263.03Z" fill="white"/>
<path d="M366.763 284.551H190.131V298.904H366.763V284.551Z" fill="white"/>
<path d="M366.763 306.072H190.131V320.425H366.763V306.072Z" fill="white"/>
<path d="M366.763 327.593H190.131V341.946H366.763V327.593Z" fill="white"/>
<path d="M366.763 349.114H190.131V363.467H366.763V349.114Z" fill="white"/>
<path d="M366.763 370.635H190.131V384.988H366.763V370.635Z" fill="white"/>
<path d="M366.763 392.156H190.131V406.509H366.763V392.156Z" fill="white"/>
<path d="M366.763 413.677H190.131V428.03H366.763V413.677Z" fill="white"/>
<path d="M366.763 435.198H190.131V449.551H366.763V435.198Z" fill="white"/>
<path d="M366.763 456.736H190.131V471.089H366.763V456.736Z" fill="white"/>
<path d="M563.852 184.289H181.341V194.753H563.852V184.289Z" stroke="#263238" stroke-miterlimit="10"/>
<path d="M181.603 539.472H164.163V753.408H181.603V539.472Z" stroke="#263238" stroke-miterlimit="10"/>
<path d="M583.891 539.472H566.451V753.408H583.891V539.472Z" stroke="#263238" stroke-miterlimit="10"/>
<path d="M187.428 487.152H561.568C568.266 487.152 574.689 489.812 579.425 494.548C584.161 499.284 586.821 505.707 586.821 512.405V550.372H162.192V512.422C162.19 509.106 162.841 505.822 164.108 502.757C165.375 499.692 167.233 496.907 169.576 494.56C171.92 492.214 174.702 490.352 177.765 489.081C180.828 487.809 184.112 487.154 187.428 487.152V487.152Z" fill="#00A7E3" stroke="#00A7E3" stroke-miterlimit="10"/>
<path d="M197.683 532.06H574.631" stroke="#263238" stroke-miterlimit="10"/>
<path d="M168.436 532.06H178.882" stroke="#263238" stroke-miterlimit="10"/>
<path d="M150.211 642.961H132.771V753.408H150.211V642.961Z" stroke="#263238" stroke-miterlimit="10"/>
<path d="M267.652 642.961H250.212V753.408H267.652V642.961Z" stroke="#263238" stroke-miterlimit="10"/>
<path d="M156.036 590.641H245.241C251.939 590.641 258.362 593.301 263.098 598.037C267.834 602.773 270.494 609.196 270.494 615.894V653.861H130.8V615.894C130.8 609.199 133.458 602.779 138.19 598.043C142.922 593.308 149.341 590.645 156.036 590.641V590.641Z" fill="#00A7E3" stroke="#00A7E3" stroke-miterlimit="10"/>
<path d="M714.116 335.424H632.723V722.591H714.116V335.424Z" stroke="#263238" stroke-miterlimit="10"/>
<path d="M758.291 335.424H723.411V722.591H758.291" stroke="#263238" stroke-miterlimit="10"/>
<path d="M619.94 752.833V317.984H729.219" stroke="#263238" stroke-miterlimit="10"/>
<path d="M707.122 506.336H697.827V542.384H707.122V506.336Z" stroke="#263238" stroke-miterlimit="10"/>
<path d="M739.683 506.336H730.387V542.384H739.683V506.336Z" stroke="#263238" stroke-miterlimit="10"/>
<path d="M511.323 276.947C511.323 276.947 511.672 286.121 509.579 291.544C507.487 296.968 508.568 308.531 509.248 310.554C509.928 312.577 507.208 319.396 507.208 319.396L513.66 328.221C513.66 328.221 521.125 317.007 524.857 310.903C528.589 304.799 534.083 299.358 532.321 295.957C530.56 292.556 525.206 285.772 524.857 284.08C524.508 282.388 521.369 280.697 521.369 280.697L515.945 292.905C515.945 292.905 514.934 284.08 514.934 280.017C514.934 275.953 512.352 273.895 511.323 276.947Z" fill="white"/>
<path opacity="0.15" d="M511.323 276.947C511.323 276.947 511.672 286.121 509.579 291.544C507.487 296.968 508.568 308.531 509.248 310.554C509.928 312.577 507.208 319.396 507.208 319.396L513.66 328.221C513.66 328.221 521.125 317.007 524.857 310.903C528.589 304.799 534.083 299.358 532.321 295.957C530.56 292.556 525.206 285.772 524.857 284.08C524.508 282.388 521.369 280.697 521.369 280.697L515.945 292.905C515.945 292.905 514.934 284.08 514.934 280.017C514.934 275.953 512.352 273.895 511.323 276.947Z" fill="black" stroke="#263238" stroke-linecap="round" stroke-linejoin="round"/>
<path d="M511.323 276.947C511.323 276.947 511.672 286.121 509.579 291.544C507.487 296.968 508.568 308.531 509.248 310.554C509.928 312.577 507.208 319.396 507.208 319.396L513.66 328.221C513.66 328.221 521.125 317.007 524.857 310.903C528.589 304.799 534.083 299.358 532.321 295.957C530.56 292.556 525.206 285.772 524.857 284.08C524.508 282.388 521.369 280.697 521.369 280.697L515.945 292.905C515.945 292.905 514.934 284.08 514.934 280.017C514.934 275.953 512.352 273.895 511.323 276.947Z" stroke="#263238" stroke-linecap="round" stroke-linejoin="round"/>
<path d="M505.9 317.408L519.486 330.976C519.486 330.976 476.705 401.94 472.293 403.963C467.881 405.986 451.243 392.4 451.243 392.4L440.029 330.593C440.029 330.593 454.992 338.632 460.085 347.108C465.177 355.584 468.561 356.404 468.561 356.404L505.9 317.408Z" fill="white"/>
<path d="M465.979 375.57C464.637 375.57 463.276 369.693 463.276 366.537C463.276 363.38 456.056 369.257 456.056 369.257L447.946 358.427L445.313 359.7L451.243 392.383C451.243 392.383 467.88 405.951 472.293 403.91C476.705 401.87 514.864 338.563 519.102 331.569C508.673 340.411 467.165 375.57 465.979 375.57Z" fill="#407BFF"/>
<path opacity="0.5" d="M465.979 375.57C464.637 375.57 463.276 369.693 463.276 366.537C463.276 363.38 456.056 369.257 456.056 369.257L447.946 358.427L445.313 359.7L451.243 392.383C451.243 392.383 467.88 405.951 472.293 403.91C476.705 401.87 514.864 338.563 519.102 331.569C508.673 340.411 467.165 375.57 465.979 375.57Z" fill="white"/>
<path d="M505.9 317.408L519.486 330.976C519.486 330.976 476.705 401.94 472.293 403.963C467.881 405.986 451.243 392.4 451.243 392.4L440.029 330.593C440.029 330.593 454.992 338.632 460.085 347.108C465.177 355.584 468.561 356.404 468.561 356.404L505.9 317.408Z" stroke="#263238" stroke-linecap="round" stroke-linejoin="round"/>
<path d="M462.247 378.675C463.119 370.827 468.561 356.386 468.561 356.386C468.561 356.386 461.375 366.467 459.195 371.699" stroke="#263238" stroke-linecap="round" stroke-linejoin="round"/>
<path d="M427.367 725.504C432.906 730.242 439.258 733.935 446.115 736.404C457.887 740.764 463.119 743.38 464.863 747.304C466.607 751.228 464.863 753.408 464.863 753.408H390.307C390.307 753.408 386.383 747.304 392.923 735.096C399.463 722.888 427.367 725.504 427.367 725.504Z" fill="white" stroke="#263238" stroke-linecap="round" stroke-linejoin="round"/>
<path d="M430.036 728.085C430.036 728.085 423.949 730.754 425.85 731.887C427.751 733.021 432.686 730.37 432.686 730.37C432.686 730.37 426.617 734.939 429.652 735.323C432.686 735.706 437.256 733.038 437.256 733.038C437.256 733.038 433.07 738.357 434.971 738.741C436.872 739.125 441.808 735.253 441.808 735.253" stroke="#263238" stroke-linecap="round" stroke-linejoin="round"/>
<path d="M389.627 747.914L464.863 747.304" stroke="#263238" stroke-linecap="round" stroke-linejoin="round"/>
<path d="M456.143 539.332C456.143 539.332 447.423 610.4 446.115 627.404C444.807 644.408 433.035 674.056 430.855 681.468C428.625 690.779 427.167 700.258 426.495 709.808C426.905 713.928 427.634 718.009 428.675 722.016C428.675 722.016 429.547 725.94 421.263 727.684C412.979 729.428 397.719 732.044 397.719 732.044C397.719 732.044 392.051 730.3 392.487 713.732C392.923 697.164 393.795 666.644 397.719 652.256C401.643 637.868 406.875 614.324 408.183 609.528C409.491 604.732 406.439 525.816 406.439 525.816L455.271 525.38L456.143 539.332Z" fill="#263238" stroke="#263238" stroke-linecap="round" stroke-linejoin="round"/>
<path d="M392.923 725.504C398.462 730.242 404.814 733.935 411.671 736.404C423.443 740.764 428.675 743.38 430.419 747.304C432.163 751.228 430.419 753.408 430.419 753.408H355.863C355.863 753.408 351.939 747.304 358.479 735.096C365.019 722.888 392.923 725.504 392.923 725.504Z" fill="white" stroke="#263238" stroke-linecap="round" stroke-linejoin="round"/>
<path d="M401.905 731.521C401.905 731.521 392.4 736.84 393.917 737.59C395.435 738.34 404.939 733.788 404.939 733.788C404.939 733.788 399.62 739.875 402.655 739.491C405.689 739.107 409.125 735.323 409.125 735.323C409.125 735.323 406.073 741.776 408.358 741.026C410.249 740.106 411.934 738.813 413.311 737.224" stroke="#263238" stroke-linecap="round" stroke-linejoin="round"/>
<path d="M354.922 746.153L430.419 747.304" stroke="#263238" stroke-linecap="round" stroke-linejoin="round"/>
<path d="M368.071 521.02C368.071 521.02 370.687 589.036 370.251 602.116C369.815 615.196 362.839 629.584 361.967 645.28C361.095 660.976 354.852 722.696 354.852 729.672C354.852 736.648 355.148 737.974 355.584 739.282C356.02 740.59 366.763 737.712 372.867 735.532C378.971 733.352 399.934 731.155 399.934 731.155C399.934 731.155 396.446 724.632 396.446 719.836C396.446 715.04 395.574 707.192 396.446 704.576C397.318 701.96 402.55 647.46 406.038 637.432C409.526 627.404 415.63 594.268 416.066 581.624C416.502 568.98 421.734 526.252 421.734 526.252C421.734 526.252 386.819 527.56 368.071 521.02Z" fill="#263238" stroke="#263238" stroke-linecap="round" stroke-linejoin="round"/>
<path d="M423.251 572.904C423.461 570.288 423.583 567.846 423.583 565.614" stroke="white" stroke-linecap="round" stroke-linejoin="round"/>
<path d="M399.934 726.707V713.418C399.934 706.756 405.846 673.498 411.008 643.937C414.845 622.032 419.903 599.308 422.257 581.781" stroke="white" stroke-linecap="round" stroke-linejoin="round"/>
<path d="M377.245 307.746C377.245 307.746 361.287 322.343 359.927 323.442C358.567 324.541 346.341 344.475 342.958 352.288C339.574 360.101 342.609 374.698 344.702 387.168C346.795 399.638 359.979 439.784 359.979 439.784L356.578 541.285C356.578 541.285 380 551.139 393.202 553.493C406.404 555.848 427.489 554.853 427.489 554.853L431.902 532.792L437.326 553.825C437.326 553.825 458.027 551.453 467.532 540.936L456.004 411.584L449.551 353.526C449.551 353.526 447.807 339.574 444.459 333.505C441.11 327.436 422.728 315.507 409.823 310.833C396.917 306.159 377.245 307.746 377.245 307.746Z" fill="white"/>
<path d="M390.656 395.888L356.823 377.855L358.253 364.827C358.253 364.827 346.463 362.979 349.166 355.305C351.87 347.632 362.752 333.104 364.967 328.203C367.182 323.303 379.39 314.251 379.39 314.251L384.256 307.485C380.053 307.485 377.28 307.764 377.28 307.764C377.28 307.764 361.322 322.361 359.962 323.46C358.601 324.558 346.376 344.492 342.993 352.305C339.609 360.119 342.644 374.716 344.737 387.185C346.829 399.655 360.014 439.802 360.014 439.802L356.613 541.303C356.613 541.303 362.177 543.64 369.414 546.308C368.42 509.231 366.641 438.79 367.304 437.796C368.211 436.453 383.994 414.793 388.494 409.892C392.993 404.992 368.664 411.235 370.007 410.346C371.35 409.456 390.656 395.888 390.656 395.888Z" fill="#407BFF"/>
<path opacity="0.5" d="M390.656 395.888L356.823 377.855L358.253 364.827C358.253 364.827 346.463 362.979 349.166 355.305C351.87 347.632 362.752 333.104 364.967 328.203C367.182 323.303 379.39 314.251 379.39 314.251L384.256 307.485C380.053 307.485 377.28 307.764 377.28 307.764C377.28 307.764 361.322 322.361 359.962 323.46C358.601 324.558 346.376 344.492 342.993 352.305C339.609 360.119 342.644 374.716 344.737 387.185C346.829 399.655 360.014 439.802 360.014 439.802L356.613 541.303C356.613 541.303 362.177 543.64 369.414 546.308C368.42 509.231 366.641 438.79 367.304 437.796C368.211 436.453 383.994 414.793 388.494 409.892C392.993 404.992 368.664 411.235 370.007 410.346C371.35 409.456 390.656 395.888 390.656 395.888Z" fill="white"/>
<path d="M423.007 379.756C423.007 379.756 434.675 491.86 431.902 532.827Z" fill="white"/>
<path d="M423.007 379.756C423.007 379.756 434.675 491.86 431.902 532.827" stroke="#263238" stroke-linecap="round" stroke-linejoin="round"/>
<path d="M371.559 474.804L406.875 479.6V488.756L371.995 483.088L371.559 474.804Z" stroke="#263238" stroke-linecap="round" stroke-linejoin="round"/>
<path d="M460.067 480.908L449.167 484.832L447.859 476.112L456.579 473.06" stroke="#263238" stroke-linecap="round" stroke-linejoin="round"/>
<path d="M377.245 307.746C377.245 307.746 361.287 322.343 359.927 323.442C358.567 324.541 346.341 344.475 342.958 352.288C339.574 360.101 342.609 374.698 344.702 387.168C346.795 399.638 359.979 439.784 359.979 439.784L356.578 541.285C356.578 541.285 380 551.139 393.202 553.493C406.404 555.848 427.489 554.853 427.489 554.853L431.902 532.792L437.326 553.825C437.326 553.825 458.027 551.453 467.532 540.936L456.004 411.584L449.551 353.526C449.551 353.526 447.807 339.574 444.459 333.505C441.11 327.436 422.728 315.507 409.823 310.833C396.917 306.159 377.245 307.746 377.245 307.746Z" stroke="#263238" stroke-linecap="round" stroke-linejoin="round"/>
<path d="M375.204 310.432C375.204 310.432 405.41 346.759 410.503 356.264C415.595 365.769 423.077 377.314 423.077 377.314C423.077 377.314 423.408 345.05 418.996 330.122C414.584 315.193 409.84 312.507 409.84 312.507C407.326 309.93 404.209 308.02 400.771 306.951C397.333 305.882 393.683 305.688 390.15 306.386C377.245 308.426 375.204 310.432 375.204 310.432Z" fill="white" stroke="#263238" stroke-linecap="round" stroke-linejoin="round"/>
<path d="M422.275 352.445L414.915 337.29V324.053L404.73 313.589L403.719 330.558L411.183 339.051L414.671 363.659C418.909 370.914 423.129 377.419 423.129 377.419C423.129 377.419 423.199 365.246 422.275 352.445Z" fill="#263238" stroke="#263238" stroke-linecap="round" stroke-linejoin="round"/>
<path d="M409.142 321.332L418.996 330.157L410.503 309.787C410.503 309.787 406.771 319.292 409.142 321.332Z" fill="white" stroke="#263238" stroke-linecap="round" stroke-linejoin="round"/>
<path d="M387.761 232.719C387.761 232.719 374.193 238.841 368.42 249.706C362.647 260.571 371.123 273.808 373.844 277.191C375.796 279.532 377.956 281.692 380.297 283.644L383.017 286.696L383.349 301.974L408.096 323.024L414.88 301.293C414.88 301.293 426.425 298.922 428.135 294.509C429.844 290.097 424.734 262.943 423.373 257.502C422.013 252.06 417.95 241.561 417.95 241.561C417.95 241.561 419.292 236.469 411.497 231.708C403.701 226.947 387.761 232.719 387.761 232.719Z" fill="white"/>
<g opacity="0.15">
<path opacity="0.15" d="M387.761 232.719C387.761 232.719 374.193 238.841 368.42 249.706C362.647 260.571 371.123 273.808 373.844 277.191C375.796 279.532 377.956 281.692 380.297 283.644L383.017 286.696L383.349 301.974L408.096 323.024L414.88 301.293C414.88 301.293 426.425 298.922 428.135 294.509C429.844 290.097 424.734 262.943 423.373 257.502C422.013 252.06 417.95 241.561 417.95 241.561C417.95 241.561 419.292 236.469 411.497 231.708C403.701 226.947 387.761 232.719 387.761 232.719Z" fill="black"/>
<g opacity="0.15">
<path opacity="0.15" d="M396.987 288.981C395.626 282.214 401.05 264.565 395.243 252.897C390.586 243.567 377.105 244.177 371.769 244.892C370.505 246.374 369.405 247.988 368.49 249.706C362.717 260.571 371.193 273.808 373.914 277.191C375.866 279.532 378.026 281.692 380.366 283.644L383.087 286.696L383.418 301.974L390.255 307.781C390.255 305.828 390.255 304.293 390.255 303.404C390.255 300.421 403.788 300.247 407.398 298.904C411.009 297.561 398.33 295.747 396.987 288.981Z" fill="black"/>
<path opacity="0.5" d="M396.987 288.981C395.626 282.214 401.05 264.565 395.243 252.897C390.586 243.567 377.105 244.177 371.769 244.892C370.505 246.374 369.405 247.988 368.49 249.706C362.717 260.571 371.193 273.808 373.914 277.191C375.866 279.532 378.026 281.692 380.366 283.644L383.087 286.696L383.418 301.974L390.255 307.781C390.255 305.828 390.255 304.293 390.255 303.404C390.255 300.421 403.788 300.247 407.398 298.904C411.009 297.561 398.33 295.747 396.987 288.981Z" fill="black"/>
</g>
</g>
<g style="mix-blend-mode:multiply" opacity="0.22">
<path d="M396.987 288.981C395.626 282.214 401.05 264.565 395.243 252.897C390.586 243.567 377.105 244.177 371.769 244.892C370.505 246.374 369.405 247.988 368.49 249.706C362.717 260.571 371.193 273.808 373.914 277.191C375.866 279.532 378.026 281.692 380.366 283.644L383.087 286.696L383.418 301.974L390.255 307.781C390.255 305.828 390.255 304.293 390.255 303.404C390.255 300.421 403.788 300.247 407.398 298.904C411.009 297.561 398.33 295.747 396.987 288.981Z" fill="black"/>
</g>
<path d="M387.761 232.719C387.761 232.719 374.193 238.841 368.42 249.706C362.647 260.571 371.123 273.808 373.844 277.191C375.796 279.532 377.956 281.692 380.297 283.644L383.017 286.696L383.349 301.974L408.096 323.024L414.88 301.293C414.88 301.293 426.425 298.922 428.135 294.509C429.844 290.097 424.734 262.943 423.373 257.502C422.013 252.06 417.95 241.561 417.95 241.561C417.95 241.561 419.292 236.469 411.497 231.708C403.701 226.947 387.761 232.719 387.761 232.719Z" stroke="#263238" stroke-linecap="round" stroke-linejoin="round"/>
<path d="M391.493 287.376C391.493 287.376 392.853 292.817 395.225 294.178C400.712 297.292 406.914 298.927 413.223 298.921" stroke="#263238" stroke-linecap="round" stroke-linejoin="round"/>
<path d="M423.408 257.502L421.368 261.234C421.368 261.234 429.512 268.716 429.181 270.739C428.85 272.762 422.397 275.168 422.397 275.168" fill="white"/>
<path opacity="0.15" d="M423.408 257.502L421.368 261.234C421.368 261.234 429.512 268.716 429.181 270.739C428.85 272.762 422.397 275.168 422.397 275.168" fill="black"/>
<path d="M423.408 257.502L421.368 261.234C421.368 261.234 429.512 268.716 429.181 270.739C428.85 272.762 422.397 275.168 422.397 275.168" stroke="#263238" stroke-linecap="round" stroke-linejoin="round"/>
<path d="M413.014 264.896L413.555 266.256L409.073 268.035L413.782 267.931" stroke="#263238" stroke-linecap="round" stroke-linejoin="round"/>
<path d="M413.677 259.996C413.677 259.996 407.957 258.426 405.567 263.222" stroke="#263238" stroke-linecap="round" stroke-linejoin="round"/>
<path d="M425.536 279.929C422.932 280.675 420.24 281.073 417.531 281.115" stroke="#263238" stroke-linecap="round" stroke-linejoin="round"/>
<path d="M397.632 243.584C406.788 238.161 418.002 241.544 418.002 241.544C418.002 241.544 419.345 236.469 411.549 231.708C403.754 226.947 387.779 232.719 387.779 232.719C387.779 232.719 374.21 238.841 368.438 249.706C362.665 260.571 371.141 273.808 373.861 277.191C375.814 279.532 377.973 281.692 380.314 283.644L383.035 286.696V287.934C388.546 287.272 389.453 286.365 389.453 286.365C388.69 286.383 387.932 286.236 387.231 285.935C386.53 285.634 385.902 285.186 385.389 284.621C383.017 282.58 378.605 279.18 379.617 274.436C380.628 269.692 384.709 269.675 386.75 271.366C388.79 273.058 388.79 273.407 391.162 272.395C393.534 271.384 390.133 265.262 390.133 265.262L393.621 262.891C397.022 260.519 398.033 257.798 395.365 255.426C392.697 253.054 388.441 249.026 397.632 243.584Z" fill="#263238" stroke="#263238" stroke-linecap="round" stroke-linejoin="round"/>
<path d="M379.965 298.59L375.204 310.467L402.358 336.609L409.491 322.692L379.965 298.59Z" fill="white" stroke="#263238" stroke-linecap="round" stroke-linejoin="round"/>
<path d="M451.243 215.175C451.243 215.175 468.892 246.41 471.613 261.338C474.333 276.267 479.426 295.957 479.426 295.957L523.898 290.864C523.898 290.864 517.445 249.462 513.434 235.545C509.423 221.628 508.341 218.558 508.341 218.558C508.341 218.558 458.672 213.466 451.243 215.175Z" fill="#263238" stroke="#263238" stroke-linecap="round" stroke-linejoin="round"/>
<path d="M457.364 319.396C457.364 319.396 459.108 307.188 459.108 306.142C459.108 305.095 458.672 287.76 458.672 287.76C458.672 287.76 465.125 273.808 466.154 273.163C467.183 272.517 478.03 267.059 478.711 269.431C479.391 271.802 476.339 272.831 475.31 273.843C474.281 274.854 469.886 276.895 469.537 277.924C469.188 278.953 467.165 286.748 467.165 286.748C467.165 286.748 475.99 279.964 478.362 279.964C480.734 279.964 482.774 285.388 482.774 285.388C482.774 285.388 485.844 289.8 485.844 292.172C485.844 294.544 486.524 297.265 484.815 298.974C483.105 300.683 482.443 302.026 480.071 302.026C477.699 302.026 474.63 304.746 474.63 306.769C474.63 308.793 474.63 315.594 472.589 317.635C469.438 320.286 466.155 322.778 462.753 325.099L457.364 319.396Z" fill="white"/>
<path opacity="0.15" d="M457.364 319.396C457.364 319.396 459.108 307.188 459.108 306.142C459.108 305.095 458.672 287.76 458.672 287.76C458.672 287.76 465.125 273.808 466.154 273.163C467.183 272.517 478.03 267.059 478.711 269.431C479.391 271.802 476.339 272.831 475.31 273.843C474.281 274.854 469.886 276.895 469.537 277.924C469.188 278.953 467.165 286.748 467.165 286.748C467.165 286.748 475.99 279.964 478.362 279.964C480.734 279.964 482.774 285.388 482.774 285.388C482.774 285.388 485.844 289.8 485.844 292.172C485.844 294.544 486.524 297.265 484.815 298.974C483.105 300.683 482.443 302.026 480.071 302.026C477.699 302.026 474.63 304.746 474.63 306.769C474.63 308.793 474.63 315.594 472.589 317.635C469.438 320.286 466.155 322.778 462.753 325.099L457.364 319.396Z" fill="black" stroke="#263238" stroke-linecap="round" stroke-linejoin="round"/>
<path d="M457.364 319.396C457.364 319.396 459.108 307.188 459.108 306.142C459.108 305.095 458.672 287.76 458.672 287.76C458.672 287.76 465.125 273.808 466.154 273.163C467.183 272.517 478.03 267.059 478.711 269.431C479.391 271.802 476.339 272.831 475.31 273.843C474.281 274.854 469.886 276.895 469.537 277.924C469.188 278.953 467.165 286.748 467.165 286.748C467.165 286.748 475.99 279.964 478.362 279.964C480.734 279.964 482.774 285.388 482.774 285.388C482.774 285.388 485.844 289.8 485.844 292.172C485.844 294.544 486.524 297.265 484.815 298.974C483.105 300.683 482.443 302.026 480.071 302.026C477.699 302.026 474.63 304.746 474.63 306.769C474.63 308.793 474.63 315.594 472.589 317.635C469.438 320.286 466.155 322.778 462.753 325.099L457.364 319.396Z" stroke="#263238" stroke-linecap="round" stroke-linejoin="round"/>
<path d="M485.879 292.225L474.333 297.666" stroke="#263238" stroke-linecap="round" stroke-linejoin="round"/>
<path d="M482.809 285.44L471.961 291.893" stroke="#263238" stroke-linecap="round" stroke-linejoin="round"/>
<path d="M525.589 282.388C525.589 282.388 518.125 286.801 518.125 288.841C518.125 290.882 519.869 291.213 522.189 290.202C524.508 289.19 528.99 287.812 528.99 285.44C528.99 283.069 527.961 282.04 525.589 282.388Z" fill="white"/>
<path opacity="0.15" d="M525.589 282.388C525.589 282.388 518.125 286.801 518.125 288.841C518.125 290.882 519.869 291.213 522.189 290.202C524.508 289.19 528.99 287.812 528.99 285.44C528.99 283.069 527.961 282.04 525.589 282.388Z" fill="black" stroke="#263238" stroke-linecap="round" stroke-linejoin="round"/>
<path d="M525.589 282.388C525.589 282.388 518.125 286.801 518.125 288.841C518.125 290.882 519.869 291.213 522.189 290.202C524.508 289.19 528.99 287.812 528.99 285.44C528.99 283.069 527.961 282.04 525.589 282.388Z" stroke="#263238" stroke-linecap="round" stroke-linejoin="round"/>
<path d="M524.229 277.627C524.229 277.627 517.096 279.371 516.765 282.04C516.433 284.708 525.589 282.72 527.63 282.04C529.67 281.359 529.67 276.616 524.229 277.627Z" fill="white"/>
<path opacity="0.15" d="M524.229 277.627C524.229 277.627 517.096 279.371 516.765 282.04C516.433 284.708 525.589 282.72 527.63 282.04C529.67 281.359 529.67 276.616 524.229 277.627Z" fill="black" stroke="#263238" stroke-linecap="round" stroke-linejoin="round"/>
<path d="M524.229 277.627C524.229 277.627 517.096 279.371 516.765 282.04C516.433 284.708 525.589 282.72 527.63 282.04C529.67 281.359 529.67 276.616 524.229 277.627Z" stroke="#263238" stroke-linecap="round" stroke-linejoin="round"/>
<path d="M527.961 287.76C527.961 287.76 519.486 291.841 519.137 293.201C518.788 294.562 518.125 296.585 521.509 296.585C524.892 296.585 531.362 293.201 531.694 290.812C532.025 288.423 530.682 287.76 527.961 287.76Z" fill="white"/>
<path opacity="0.15" d="M527.961 287.76C527.961 287.76 519.486 291.841 519.137 293.201C518.788 294.562 518.125 296.585 521.509 296.585C524.892 296.585 531.362 293.201 531.694 290.812C532.025 288.423 530.682 287.76 527.961 287.76Z" fill="black" stroke="#263238" stroke-linecap="round" stroke-linejoin="round"/>
<path d="M527.961 287.76C527.961 287.76 519.486 291.841 519.137 293.201C518.788 294.562 518.125 296.585 521.509 296.585C524.892 296.585 531.362 293.201 531.694 290.812C532.025 288.423 530.682 287.76 527.961 287.76Z" stroke="#263238" stroke-linecap="round" stroke-linejoin="round"/>
<path d="M530.63 292.573C530.63 292.573 522.781 296.166 522.468 297.369C522.154 298.573 521.526 300.369 524.665 300.369C527.804 300.369 533.769 297.369 534.083 295.277C534.397 293.184 533.141 292.573 530.63 292.573Z" fill="white"/>
<path opacity="0.15" d="M530.63 292.573C530.63 292.573 522.781 296.166 522.468 297.369C522.154 298.573 521.526 300.369 524.665 300.369C527.804 300.369 533.769 297.369 534.083 295.277C534.397 293.184 533.141 292.573 530.63 292.573Z" fill="black" stroke="#263238" stroke-linecap="round" stroke-linejoin="round"/>
<path d="M530.63 292.573C530.63 292.573 522.781 296.166 522.468 297.369C522.154 298.573 521.526 300.369 524.665 300.369C527.804 300.369 533.769 297.369 534.083 295.277C534.397 293.184 533.141 292.573 530.63 292.573Z" stroke="#263238" stroke-linecap="round" stroke-linejoin="round"/>
<path d="M464.218 219.622C464.218 219.622 478.38 244.3 480.996 254.328C483.612 264.356 485.792 292.26 485.792 292.26L514.131 288.772C514.131 288.772 513.259 263.484 509.335 251.276C505.411 239.068 502.359 223.372 502.359 223.372L464.218 219.622Z" fill="#7D7D7D"/>
<path d="M487.71 256.839C487.71 256.839 484.466 262.873 486.314 265.437C488.163 268 492.575 269.151 493.046 269.849C493.517 270.547 496.761 290.271 496.761 290.271L506.737 289.347C506.737 289.347 501.871 271 503.022 267.53C504.173 264.059 506.981 260.798 504.19 257.781C501.4 254.763 496.988 252.671 494.215 253.124C491.81 253.893 489.594 255.159 487.71 256.839V256.839Z" fill="white"/>
<path d="M478.658 221.784C478.658 221.784 486.785 242.712 486.088 246.392C485.39 250.072 483.524 256.141 487.71 256.856C491.895 257.571 493.744 253.612 495.139 253.839C496.534 254.066 498.854 258.478 500.947 255.932C503.039 253.386 505.115 249.2 501.644 245.014C498.174 240.829 495.61 238.527 493.744 234.115C492.319 230.465 491.079 226.745 490.029 222.97L478.658 221.784Z" fill="white"/>
<path d="M375.536 330.244C375.536 330.244 380.628 330.244 386.75 335.685C392.871 341.126 414.654 363.188 414.654 363.188L457.085 317.007L471.037 330.244L420.688 403.91C418.288 404.728 415.755 405.077 413.224 404.939C409.491 404.591 352.463 376.425 352.463 376.425" fill="white"/>
<path d="M406.457 393.603C398.783 393.603 373.077 379.163 364.967 372.85C362.227 370.63 359.952 367.892 358.27 364.793L352.463 376.425C352.463 376.425 409.491 404.591 413.224 404.939C415.755 405.077 418.289 404.728 420.688 403.91L457.068 350.544C443.953 363.415 412.491 393.603 406.457 393.603Z" fill="#407BFF"/>
<path opacity="0.5" d="M406.457 393.603C398.783 393.603 373.077 379.163 364.967 372.85C362.227 370.63 359.952 367.892 358.27 364.793L352.463 376.425C352.463 376.425 409.491 404.591 413.224 404.939C415.755 405.077 418.289 404.728 420.688 403.91L457.068 350.544C443.953 363.415 412.491 393.603 406.457 393.603Z" fill="white"/>
<path d="M375.536 330.244C375.536 330.244 380.628 330.244 386.75 335.685C392.871 341.126 414.654 363.188 414.654 363.188L457.085 317.007L471.037 330.244L420.688 403.91C418.288 404.728 415.755 405.077 413.224 404.939C409.491 404.591 352.463 376.425 352.463 376.425" stroke="#263238" stroke-linecap="round" stroke-linejoin="round"/>
<path d="M375.536 388.302L356.875 387.953" stroke="#263238" stroke-linecap="round" stroke-linejoin="round"/>
<path d="M414.584 362.525C414.584 362.525 403.823 375.396 402.515 382.372" stroke="#263238" stroke-linecap="round" stroke-linejoin="round"/>
<path d="M411.235 363.851C411.235 363.851 402.079 372.135 399.899 376.495" stroke="#263238" stroke-linecap="round" stroke-linejoin="round"/>
<path d="M111.843 753.408H790.851" stroke="#263238" stroke-linecap="round" stroke-linejoin="round"/>
</svg>
