<svg width="2000" height="274" viewBox="0 0 2000 274" fill="none" xmlns="http://www.w3.org/2000/svg">
<path fill-rule="evenodd" clip-rule="evenodd" d="M0 0L41.6667 30.4444C83.3333 60.8889 166.667 121.778 250 137C333.333 152.222 416.667 121.778 500 111.63C583.333 101.481 666.667 111.63 750 137C833.333 162.37 916.667 202.963 1000 187.741C1083.33 172.519 1166.67 101.481 1250 101.481C1333.33 101.481 1416.67 172.519 1500 177.593C1583.33 182.667 1666.67 121.778 1750 81.1852C1833.33 40.5926 1916.67 20.2963 1958.33 10.1481L2000 0V274H1958.33C1916.67 274 1833.33 274 1750 274C1666.67 274 1583.33 274 1500 274C1416.67 274 1333.33 274 1250 274C1166.67 274 1083.33 274 1000 274C916.667 274 833.333 274 750 274C666.667 274 583.333 274 500 274C416.667 274 333.333 274 250 274C166.667 274 83.3333 274 41.6667 274H0V0Z" fill="#F5F5F5"/>
</svg>
