<svg width="32" height="32" viewBox="0 0 32 32" fill="none" xmlns="http://www.w3.org/2000/svg">
<path d="M2 28H10V30H2V28Z" fill="url(#paint0_linear)"/>
<path d="M17 29C16.8502 28.9999 16.7023 28.9662 16.5673 28.9013C16.4323 28.8364 16.3136 28.742 16.22 28.625L12.52 24H2V22H13C13.1498 22.0001 13.2977 22.0339 13.4327 22.0988C13.5677 22.1637 13.6864 22.2581 13.78 22.375L16.927 26.307L22.168 18.445C22.2567 18.312 22.3761 18.2021 22.5161 18.1248C22.656 18.0474 22.8125 18.0047 22.9724 18.0003C23.1322 17.9959 23.2908 18.0299 23.4348 18.0994C23.5788 18.169 23.7041 18.2721 23.8 18.4L26.5 22H30V24H26C25.8448 24 25.6916 23.9639 25.5528 23.8944C25.4139 23.825 25.2931 23.7242 25.2 23.6L23.048 20.73L17.832 28.555C17.7447 28.6859 17.6278 28.7944 17.4907 28.8715C17.3536 28.9487 17.2002 28.9924 17.043 28.999L17 29Z" fill="url(#paint1_linear)"/>
<path d="M11 16V11H12C13.0605 10.9987 14.0771 10.5768 14.827 9.82697C15.5768 9.07711 15.9987 8.06046 16 7V4H13C11.976 4.00168 10.9921 4.39819 10.253 5.107C9.73517 4.16677 8.9747 3.38258 8.0508 2.83613C7.12691 2.28967 6.0734 2.00094 5 2H2V5C2.00185 6.59073 2.63459 8.11578 3.75941 9.24059C4.88422 10.3654 6.40927 10.9981 8 11H9V16H2V18H16V16H11ZM13 6H14V7C13.9995 7.53027 13.7886 8.03867 13.4136 8.41363C13.0387 8.78859 12.5303 8.99947 12 9H11V8C11.0005 7.46973 11.2114 6.96133 11.5864 6.58637C11.9613 6.21141 12.4697 6.00053 13 6V6ZM8 9C6.93954 8.99868 5.92289 8.57682 5.17303 7.82697C4.42318 7.07711 4.00132 6.06046 4 5V4H5C6.06046 4.00132 7.07711 4.42318 7.82697 5.17303C8.57682 5.92289 8.99868 6.93954 9 8V9H8Z" fill="url(#paint2_linear)"/>
<defs>
<linearGradient id="paint0_linear" x1="6" y1="28" x2="6" y2="30" gradientUnits="userSpaceOnUse">
<stop stop-color="#00A7E3"/>
<stop offset="1" stop-color="#00A7E3"/>
</linearGradient>
<linearGradient id="paint1_linear" x1="16" y1="17.9999" x2="16" y2="29" gradientUnits="userSpaceOnUse">
<stop stop-color="#00A7E3"/>
<stop offset="1" stop-color="#00A7E3"/>
</linearGradient>
<linearGradient id="paint2_linear" x1="9" y1="2" x2="9" y2="18" gradientUnits="userSpaceOnUse">
<stop stop-color="#00A7E3"/>
<stop offset="1" stop-color="#00A7E3"/>
</linearGradient>
</defs>
</svg>
