<svg width="64" height="64" viewBox="0 0 64 64" fill="none" xmlns="http://www.w3.org/2000/svg">
<path d="M32 49.813V51.688C32.0005 51.9366 32.0995 52.1749 32.2753 52.3507C32.4511 52.5265 32.6894 52.6255 32.938 52.626H60.126V48.876H32.938C32.6896 48.8765 32.4514 48.9754 32.2757 49.151C32.0999 49.3265 32.0008 49.5646 32 49.813" fill="#00A7E3"/>
<path d="M60.125 43.25H32.938C32.6894 43.2505 32.4511 43.3495 32.2753 43.5253C32.0995 43.7011 32.0005 43.9394 32 44.188V46.063C32.0008 46.3114 32.0999 46.5495 32.2757 46.725C32.4514 46.9006 32.6896 46.9995 32.938 47H60.126V43.25H60.125Z" fill="#00A7E3"/>
<path d="M61.063 58.25H60.125V54.5H32.938C32.6895 54.5008 32.4513 54.5999 32.2756 54.7756C32.0999 54.9513 32.0008 55.1895 32 55.438V58.251H30.125V42.313C30.1255 42.0644 30.2245 41.8261 30.4003 41.6503C30.5761 41.4745 30.8144 41.3755 31.063 41.375H60.126V37.625C60.1247 37.1281 59.9267 36.652 59.5754 36.3006C59.224 35.9493 58.7479 35.7513 58.251 35.75H45.125V22.625C45.1237 21.1336 44.5306 19.7036 43.476 18.649C42.4214 17.5944 40.9914 17.0013 39.5 17H34.812V9.5C34.812 7.51088 34.0218 5.60322 32.6153 4.1967C31.2088 2.79018 29.3011 2 27.312 2C25.3229 2 23.4152 2.79018 22.0087 4.1967C20.6022 5.60322 19.812 7.51088 19.812 9.5V17H15.124C13.6327 17.0016 12.203 17.5948 11.1486 18.6493C10.0942 19.7039 9.50132 21.1337 9.5 22.625V35.75H8.563C8.047 35.75 7.391 36.101 7.106 36.53L4.395 40.594C4.11 41.024 3.875 41.796 3.875 42.312V58.25H2.938C2.68947 58.2508 2.45135 58.3499 2.27561 58.5256C2.09987 58.7013 2.00079 58.9395 2 59.188V61.063C2.00079 61.3114 2.0999 61.5495 2.27567 61.725C2.45144 61.9006 2.68956 61.9995 2.938 62H61.063C61.3113 61.9992 61.5491 61.9002 61.7247 61.7247C61.9002 61.5491 61.9992 61.3113 62 61.063V59.188C61.9992 58.9396 61.9003 58.7017 61.7247 58.526C61.5492 58.3502 61.3114 58.2511 61.063 58.25ZM22.625 52.625V58.25H21.687V52.625H18.406V54.5C18.664 54.5 18.875 54.712 18.875 54.969V55.907C18.8747 56.0313 18.8252 56.1504 18.7373 56.2383C18.6494 56.3262 18.5303 56.3757 18.406 56.376V58.251H17.468V56.376C17.3437 56.3757 17.2246 56.3262 17.1367 56.2383C17.0488 56.1504 16.9993 56.0313 16.999 55.907V54.969C16.999 54.712 17.21 54.5 17.468 54.5V52.625H14.187V58.25H13.25V51.687H22.626V52.625H22.625ZM27.313 3.406C28.9287 3.40785 30.4776 4.05049 31.6201 5.19294C32.7625 6.33538 33.4051 7.88434 33.407 9.5C33.407 12.86 30.674 15.594 27.313 15.594C23.952 15.594 21.219 12.86 21.219 9.5C21.2206 7.88426 21.8631 6.33515 23.0056 5.19265C24.1481 4.05014 25.6973 3.40759 27.313 3.406V3.406ZM11.375 22.625C11.3779 21.6313 11.7739 20.6792 12.4766 19.9766C13.1792 19.2739 14.1313 18.8779 15.125 18.875H39.5C40.4937 18.8779 41.4458 19.2739 42.1484 19.9766C42.8511 20.6792 43.2471 21.6313 43.25 22.625V35.75H26.375C25.8781 35.7513 25.402 35.9493 25.0506 36.3006C24.6993 36.652 24.5013 37.1281 24.5 37.625V58.25H23.562V51.031H12.312V58.25H11.374V22.625H11.375ZM6.688 40.906C6.688 40.649 6.899 40.437 7.157 40.437H8.095C8.353 40.437 8.564 40.649 8.564 40.906V45.594C8.56347 45.7182 8.51389 45.8372 8.42605 45.9251C8.33821 46.0129 8.21922 46.0625 8.095 46.063H7.156C7.03178 46.0625 6.91279 46.0129 6.82495 45.9251C6.73711 45.8372 6.68753 45.7182 6.687 45.594V40.906H6.688ZM6.688 49.344C6.688 49.087 6.899 48.875 7.157 48.875H8.095C8.353 48.875 8.564 49.087 8.564 49.344V54.032C8.56374 54.1563 8.51424 54.2754 8.42634 54.3633C8.33844 54.4512 8.21931 54.5007 8.095 54.501H7.156C7.03169 54.5007 6.91256 54.4512 6.82466 54.3633C6.73676 54.2754 6.68726 54.1563 6.687 54.032V49.344H6.688Z" fill="#00A7E3"/>
<path d="M13.719 34.813H14.657C14.7812 34.8125 14.9002 34.7629 14.9881 34.6751C15.0759 34.5872 15.1255 34.4682 15.126 34.344V29.656C15.1255 29.5318 15.0759 29.4128 14.9881 29.325C14.9002 29.2371 14.7812 29.1875 14.657 29.187H13.719C13.5948 29.1875 13.4758 29.2371 13.3879 29.325C13.3001 29.4128 13.2505 29.5318 13.25 29.656V34.344C13.25 34.601 13.461 34.813 13.719 34.813Z" fill="#00A7E3"/>
<path d="M17.469 34.813H18.407C18.5312 34.8125 18.6502 34.7629 18.7381 34.6751C18.8259 34.5872 18.8755 34.4682 18.876 34.344V29.656C18.8755 29.5318 18.8259 29.4128 18.7381 29.325C18.6502 29.2371 18.5312 29.1875 18.407 29.187H17.469C17.3448 29.1875 17.2258 29.2371 17.1379 29.325C17.0501 29.4128 17.0005 29.5318 17 29.656V34.344C17 34.601 17.211 34.813 17.469 34.813Z" fill="#00A7E3"/>
<path d="M21.219 34.813H22.157C22.2812 34.8125 22.4002 34.7629 22.4881 34.6751C22.5759 34.5872 22.6255 34.4682 22.626 34.344V29.656C22.6255 29.5318 22.5759 29.4128 22.4881 29.325C22.4002 29.2371 22.2812 29.1875 22.157 29.187H21.219C21.0948 29.1875 20.9758 29.2371 20.8879 29.325C20.8001 29.4128 20.7505 29.5318 20.75 29.656V34.344C20.75 34.601 20.961 34.813 21.219 34.813Z" fill="#00A7E3"/>
<path d="M24.969 34.813H25.907C26.0312 34.8125 26.1502 34.7629 26.2381 34.6751C26.3259 34.5872 26.3755 34.4682 26.376 34.344V29.656C26.3755 29.5318 26.3259 29.4128 26.2381 29.325C26.1502 29.2371 26.0312 29.1875 25.907 29.187H24.969C24.8448 29.1875 24.7258 29.2371 24.6379 29.325C24.5501 29.4128 24.5005 29.5318 24.5 29.656V34.344C24.5 34.601 24.711 34.813 24.969 34.813Z" fill="#00A7E3"/>
<path d="M28.719 34.813H29.657C29.7812 34.8125 29.9002 34.7629 29.9881 34.6751C30.0759 34.5872 30.1255 34.4682 30.126 34.344V29.656C30.1255 29.5318 30.0759 29.4128 29.9881 29.325C29.9002 29.2371 29.7812 29.1875 29.657 29.187H28.719C28.5948 29.1875 28.4758 29.2371 28.3879 29.325C28.3001 29.4128 28.2505 29.5318 28.25 29.656V34.344C28.25 34.601 28.461 34.813 28.719 34.813Z" fill="#00A7E3"/>
<path d="M13.719 42.313H14.657C14.7812 42.3125 14.9002 42.2629 14.9881 42.1751C15.0759 42.0872 15.1255 41.9682 15.126 41.844V37.156C15.1255 37.0318 15.0759 36.9128 14.9881 36.825C14.9002 36.7371 14.7812 36.6875 14.657 36.687H13.719C13.5948 36.6875 13.4758 36.7371 13.3879 36.825C13.3001 36.9128 13.2505 37.0318 13.25 37.156V41.844C13.25 42.101 13.461 42.313 13.719 42.313Z" fill="#00A7E3"/>
<path d="M17.469 42.313H18.407C18.5312 42.3125 18.6502 42.2629 18.7381 42.1751C18.8259 42.0872 18.8755 41.9682 18.876 41.844V37.156C18.8755 37.0318 18.8259 36.9128 18.7381 36.825C18.6502 36.7371 18.5312 36.6875 18.407 36.687H17.469C17.3448 36.6875 17.2258 36.7371 17.1379 36.825C17.0501 36.9128 17.0005 37.0318 17 37.156V41.844C17 42.101 17.211 42.313 17.469 42.313Z" fill="#00A7E3"/>
<path d="M21.219 42.313H22.157C22.2812 42.3125 22.4002 42.2629 22.4881 42.1751C22.5759 42.0872 22.6255 41.9682 22.626 41.844V37.156C22.6255 37.0318 22.5759 36.9128 22.4881 36.825C22.4002 36.7371 22.2812 36.6875 22.157 36.687H21.219C21.0948 36.6875 20.9758 36.7371 20.8879 36.825C20.8001 36.9128 20.7505 37.0318 20.75 37.156V41.844C20.75 42.101 20.961 42.313 21.219 42.313Z" fill="#00A7E3"/>
<path d="M13.719 49.813H14.657C14.7812 49.8125 14.9002 49.7629 14.9881 49.6751C15.0759 49.5872 15.1255 49.4682 15.126 49.344V44.656C15.1255 44.5318 15.0759 44.4128 14.9881 44.325C14.9002 44.2371 14.7812 44.1875 14.657 44.187H13.719C13.5948 44.1875 13.4758 44.2371 13.3879 44.325C13.3001 44.4128 13.2505 44.5318 13.25 44.656V49.344C13.25 49.601 13.461 49.813 13.719 49.813Z" fill="#00A7E3"/>
<path d="M17.469 49.813H18.407C18.5312 49.8125 18.6502 49.7629 18.7381 49.6751C18.8259 49.5872 18.8755 49.4682 18.876 49.344V44.656C18.8755 44.5318 18.8259 44.4128 18.7381 44.325C18.6502 44.2371 18.5312 44.1875 18.407 44.187H17.469C17.3448 44.1875 17.2258 44.2371 17.1379 44.325C17.0501 44.4128 17.0005 44.5318 17 44.656V49.344C17 49.601 17.211 49.813 17.469 49.813Z" fill="#00A7E3"/>
<path d="M21.219 49.813H22.157C22.2812 49.8125 22.4002 49.7629 22.4881 49.6751C22.5759 49.5872 22.6255 49.4682 22.626 49.344V44.656C22.6255 44.5318 22.5759 44.4128 22.4881 44.325C22.4002 44.2371 22.2812 44.1875 22.157 44.187H21.219C21.0948 44.1875 20.9758 44.2371 20.8879 44.325C20.8001 44.4128 20.7505 44.5318 20.75 44.656V49.344C20.75 49.601 20.961 49.813 21.219 49.813Z" fill="#00A7E3"/>
<path d="M13.719 27.313H14.657C14.7812 27.3125 14.9002 27.2629 14.9881 27.1751C15.0759 27.0872 15.1255 26.9682 15.126 26.844V22.156C15.1255 22.0318 15.0759 21.9128 14.9881 21.825C14.9002 21.7371 14.7812 21.6875 14.657 21.687H13.719C13.5948 21.6875 13.4758 21.7371 13.3879 21.825C13.3001 21.9128 13.2505 22.0318 13.25 22.156V26.844C13.25 27.101 13.461 27.313 13.719 27.313Z" fill="#00A7E3"/>
<path d="M17.469 27.313H18.407C18.5312 27.3125 18.6502 27.2629 18.7381 27.1751C18.8259 27.0872 18.8755 26.9682 18.876 26.844V22.156C18.8755 22.0318 18.8259 21.9128 18.7381 21.825C18.6502 21.7371 18.5312 21.6875 18.407 21.687H17.469C17.3448 21.6875 17.2258 21.7371 17.1379 21.825C17.0501 21.9128 17.0005 22.0318 17 22.156V26.844C17 27.101 17.211 27.313 17.469 27.313Z" fill="#00A7E3"/>
<path d="M21.219 27.313H22.157C22.2812 27.3125 22.4002 27.2629 22.4881 27.1751C22.5759 27.0872 22.6255 26.9682 22.626 26.844V22.156C22.6255 22.0318 22.5759 21.9128 22.4881 21.825C22.4002 21.7371 22.2812 21.6875 22.157 21.687H21.219C21.0948 21.6875 20.9758 21.7371 20.8879 21.825C20.8001 21.9128 20.7505 22.0318 20.75 22.156V26.844C20.75 27.101 20.961 27.313 21.219 27.313Z" fill="#00A7E3"/>
<path d="M24.969 27.313H25.907C26.0312 27.3125 26.1502 27.2629 26.2381 27.1751C26.3259 27.0872 26.3755 26.9682 26.376 26.844V22.156C26.3755 22.0318 26.3259 21.9128 26.2381 21.825C26.1502 21.7371 26.0312 21.6875 25.907 21.687H24.969C24.8448 21.6875 24.7258 21.7371 24.6379 21.825C24.5501 21.9128 24.5005 22.0318 24.5 22.156V26.844C24.5 27.101 24.711 27.313 24.969 27.313Z" fill="#00A7E3"/>
<path d="M28.719 27.313H29.657C29.7812 27.3125 29.9002 27.2629 29.9881 27.1751C30.0759 27.0872 30.1255 26.9682 30.126 26.844V22.156C30.1255 22.0318 30.0759 21.9128 29.9881 21.825C29.9002 21.7371 29.7812 21.6875 29.657 21.687H28.719C28.5948 21.6875 28.4758 21.7371 28.3879 21.825C28.3001 21.9128 28.2505 22.0318 28.25 22.156V26.844C28.25 27.101 28.461 27.313 28.719 27.313Z" fill="#00A7E3"/>
<path d="M32.469 34.813H33.407C33.5312 34.8125 33.6502 34.7629 33.7381 34.6751C33.8259 34.5872 33.8755 34.4682 33.876 34.344V29.656C33.8755 29.5318 33.8259 29.4128 33.7381 29.325C33.6502 29.2371 33.5312 29.1875 33.407 29.187H32.469C32.3448 29.1875 32.2258 29.2371 32.1379 29.325C32.0501 29.4128 32.0005 29.5318 32 29.656V34.344C32 34.601 32.211 34.813 32.469 34.813Z" fill="#00A7E3"/>
<path d="M32.469 27.313H33.407C33.5312 27.3125 33.6502 27.2629 33.7381 27.1751C33.8259 27.0872 33.8755 26.9682 33.876 26.844V22.156C33.8755 22.0318 33.8259 21.9128 33.7381 21.825C33.6502 21.7371 33.5312 21.6875 33.407 21.687H32.469C32.3448 21.6875 32.2258 21.7371 32.1379 21.825C32.0501 21.9128 32.0005 22.0318 32 22.156V26.844C32 27.101 32.211 27.313 32.469 27.313Z" fill="#00A7E3"/>
<path d="M36.219 34.813H37.157C37.2812 34.8125 37.4002 34.7629 37.4881 34.6751C37.5759 34.5872 37.6255 34.4682 37.626 34.344V29.656C37.6255 29.5318 37.5759 29.4128 37.4881 29.325C37.4002 29.2371 37.2812 29.1875 37.157 29.187H36.219C36.0948 29.1875 35.9758 29.2371 35.8879 29.325C35.8001 29.4128 35.7505 29.5318 35.75 29.656V34.344C35.75 34.601 35.961 34.813 36.219 34.813Z" fill="#00A7E3"/>
<path d="M36.219 27.313H37.157C37.2812 27.3125 37.4002 27.2629 37.4881 27.1751C37.5759 27.0872 37.6255 26.9682 37.626 26.844V22.156C37.6255 22.0318 37.5759 21.9128 37.4881 21.825C37.4002 21.7371 37.2812 21.6875 37.157 21.687H36.219C36.0948 21.6875 35.9758 21.7371 35.8879 21.825C35.8001 21.9128 35.7505 22.0318 35.75 22.156V26.844C35.75 27.101 35.961 27.313 36.219 27.313Z" fill="#00A7E3"/>
<path d="M39.969 34.813H40.907C41.0312 34.8125 41.1502 34.7629 41.2381 34.6751C41.3259 34.5872 41.3755 34.4682 41.376 34.344V29.656C41.3755 29.5318 41.3259 29.4128 41.2381 29.325C41.1502 29.2371 41.0312 29.1875 40.907 29.187H39.969C39.8448 29.1875 39.7258 29.2371 39.6379 29.325C39.5501 29.4128 39.5005 29.5318 39.5 29.656V34.344C39.5 34.601 39.711 34.813 39.969 34.813Z" fill="#00A7E3"/>
<path d="M39.969 27.313H40.907C41.0312 27.3125 41.1502 27.2629 41.2381 27.1751C41.3259 27.0872 41.3755 26.9682 41.376 26.844V22.156C41.3755 22.0318 41.3259 21.9128 41.2381 21.825C41.1502 21.7371 41.0312 21.6875 40.907 21.687H39.969C39.8448 21.6875 39.7258 21.7371 39.6379 21.825C39.5501 21.9128 39.5005 22.0318 39.5 22.156V26.844C39.5 27.101 39.711 27.313 39.969 27.313Z" fill="#00A7E3"/>
<path d="M25.75 11.063V13.407C25.75 13.837 26.103 14.188 26.531 14.188H28.094C28.3009 14.1872 28.4991 14.1047 28.6454 13.9584C28.7917 13.8121 28.8742 13.6139 28.875 13.407V11.063H31.219C31.649 11.063 32 10.711 32 10.282V8.71899C31.9995 8.51202 31.917 8.31367 31.7707 8.16732C31.6243 8.02097 31.426 7.93852 31.219 7.93799H28.875V5.59399C28.8742 5.3871 28.7917 5.18891 28.6454 5.04261C28.4991 4.89632 28.3009 4.81378 28.094 4.81299H26.531C26.3241 4.81378 26.1259 4.89632 25.9796 5.04261C25.8333 5.18891 25.7508 5.3871 25.75 5.59399V7.93799H23.406C23.199 7.93852 23.0007 8.02097 22.8543 8.16732C22.708 8.31367 22.6255 8.51202 22.625 8.71899V10.282C22.625 10.712 22.977 11.063 23.406 11.063H25.75" fill="#00A7E3"/>
</svg>
