<svg width="64" height="64" viewBox="0 0 64 64" fill="none" xmlns="http://www.w3.org/2000/svg">
<path d="M37.8519 51.571L22.3879 42.64L23.9199 39.989L39.3809 48.92L37.8519 51.571Z" fill="#00A7E3"/>
<path d="M53.6309 56.656C58.0969 52.438 60.9269 46.512 60.9269 39.898C60.9269 31.749 56.6469 24.399 49.9919 20.271L57.4479 7.36501L56.2769 6.69001L58.1159 3.49201L53.2949 0.709015L51.4519 3.90201L50.2189 3.19001L31.8889 34.942L33.4899 35.866L31.2169 39.798L35.2449 42.124L37.5189 38.19L39.1179 39.114L46.8259 25.765C49.2023 27.2796 51.1588 29.3684 52.5149 31.8387C53.871 34.3089 54.5829 37.081 54.5849 39.899C54.5849 49.139 47.0629 56.657 37.8219 56.657H24.3159V63.002H62.3339V56.657H53.6329L53.6309 56.656Z" fill="#00A7E3"/>
<path d="M19.883 7.865V2.828H20.503L20.494 1.62H14.845L14.854 2.828H15.52V7.865H11.305V2.828H11.923L11.916 1.62H6.262L6.273 2.828H6.939V7.865H0.75V33.096H26.019V7.865H19.885H19.883ZM23.879 30.96H2.887V10.001H6.938V26.121C6.938 27.341 7.935 28.332 9.138 28.332C10.343 28.327 11.304 27.339 11.304 26.121V10.001H15.519V26.121C15.519 27.341 16.517 28.332 17.72 28.332C18.925 28.327 19.886 27.339 19.884 26.121V10.001H23.879V30.96V30.96Z" fill="#00A7E3"/>
</svg>
