<svg width="599" height="1091" viewBox="0 0 599 1091" fill="none" xmlns="http://www.w3.org/2000/svg">
<path fill-rule="evenodd" clip-rule="evenodd" d="M157.571 1.23766L169.625 46.5825C181.679 91.9273 205.786 182.617 267.071 273.585C328.356 364.552 426.817 455.798 500.494 546.858C574.171 637.919 623.064 728.793 572.818 818.927C522.572 909.061 373.188 998.454 298.496 1043.15L223.804 1087.85L0.743062 1086.18L1.0814 1040.93C1.41975 995.674 2.09643 905.169 2.77311 814.665C3.4498 724.161 4.12648 633.656 4.80317 543.152C5.47985 452.648 6.15653 362.143 6.83322 271.639C7.5099 181.135 8.18659 90.6302 8.52493 45.378L8.86327 0.125806L157.571 1.23766Z" fill="url(#paint0_linear)"/>
<defs>
<linearGradient id="paint0_linear" x1="594.801" y1="547.563" x2="1" y2="407.5" gradientUnits="userSpaceOnUse">
<stop stop-color="#1ECBD1"/>
<stop offset="0.456907" stop-color="#00A7E3"/>
<stop offset="1" stop-color="#00A7E3"/>
</linearGradient>
</defs>
</svg>
