<svg width="197" height="313" viewBox="0 0 197 313" fill="none" xmlns="http://www.w3.org/2000/svg">
<g id="character">
<path id="Vector" d="M132 104.87C132 104.87 142.65 127.6 142.65 128.8C142.65 130 133.2 135.14 131.4 136.22C130.004 137.015 128.565 137.733 127.09 138.37L128.17 148.9C128.17 148.9 144.44 145.19 151.26 141.48C158.08 137.77 157.84 133.58 156.26 127.36C154.68 121.14 144.17 97.1 144.17 97.1L132 104.87Z" fill="white"/>
<g id="Group">
<g id="Vector_2" style="mix-blend-mode:multiply" opacity="0.5">
<path d="M151.23 141.48C158.05 137.77 157.81 133.58 156.23 127.36C154.65 121.14 144.14 97.1 144.14 97.1L142.44 98.18L141.9 99.18C141.9 99.18 151.71 123.26 152.3 131.28C152.7 136.67 141.85 143.39 134.68 147.23C140 145.82 147.24 143.65 151.23 141.48Z" fill="#035D81"/>
</g>
</g>
<path id="Vector_3" d="M132 104.87C132 104.87 142.65 127.6 142.65 128.8C142.65 130 133.2 135.14 131.4 136.22C130.004 137.015 128.565 137.733 127.09 138.37L128.17 148.9C128.17 148.9 144.44 145.19 151.26 141.48C158.08 137.77 157.84 133.58 156.26 127.36C154.68 121.14 144.17 97.1 144.17 97.1L132 104.87Z" stroke="#263238" stroke-linecap="round" stroke-linejoin="round"/>
<path id="Vector_4" d="M55.16 99.85C55.16 99.85 47.39 128.32 47.16 133.35C46.93 138.38 62.59 148.3 63.16 148.9C63.73 149.5 62.27 131.6 62.27 131.6L67.58 105.6L55.16 99.85Z" fill="white"/>
<g id="Group_2">
<g id="Vector_5" style="mix-blend-mode:multiply" opacity="0.5">
<path d="M58.72 102.18L58.55 101.41L55.16 99.85C55.16 99.85 47.39 128.32 47.16 133.35C46.93 138.38 62.59 148.3 63.16 148.9C63.39 149.14 63.3 146.46 63.11 143.15C58.45 139.2 51.76 133.64 50.98 131.3" fill="#035D81"/>
</g>
</g>
<path id="Vector_6" d="M55.16 99.85C55.16 99.85 47.39 128.32 47.16 133.35C46.93 138.38 62.59 148.3 63.16 148.9C63.73 149.5 62.27 131.6 62.27 131.6L67.58 105.6L55.16 99.85Z" stroke="#263238" stroke-linecap="round" stroke-linejoin="round"/>
<path id="Vector_7" d="M91.65 71.25C91.65 71.25 88.65 73.41 82.8 73.65C76.95 73.89 76.67 69.65 69.4 69.65C60.59 69.65 49.54 97.52 49.54 97.52C49.54 97.52 55.04 102.91 60.43 105.18C63.4117 106.486 66.5465 107.41 69.76 107.93L70.6 126.24H129.94L130.65 107.93L149.2 95.9C149.2 95.9 140.1 79.63 135.68 73.53C131.26 67.43 123.83 69.7 121.56 71.25C119.29 72.8 112.56 73.17 110.08 72.81C106.845 72.094 103.647 71.2162 100.5 70.18C100.5 70.18 96.68 67 91.65 71.25Z" fill="#035D81" stroke="#263238" stroke-linecap="round" stroke-linejoin="round"/>
<path id="Vector_8" d="M70.36 77.71L70.12 108.1" stroke="#263238" stroke-width="0.5" stroke-linecap="round" stroke-linejoin="round"/>
<path id="Vector_9" d="M72.51 80.47C72.51 80.47 73.35 95.3 76.51 103.56" stroke="#263238" stroke-width="0.5" stroke-linecap="round" stroke-linejoin="round"/>
<path id="Vector_10" d="M77.06 104.75C77.7425 106.766 78.5817 108.725 79.57 110.61" stroke="#263238" stroke-width="0.5" stroke-linecap="round" stroke-linejoin="round"/>
<path id="Vector_11" d="M74.42 78.79C75.5552 84.1824 77.158 89.4657 79.21 94.58" stroke="#263238" stroke-width="0.5" stroke-linecap="round" stroke-linejoin="round"/>
<path id="Vector_12" d="M126 81.42C126 81.42 123.13 93.15 120.61 98.42" stroke="#263238" stroke-width="0.5" stroke-linecap="round" stroke-linejoin="round"/>
<path id="Vector_13" d="M130.65 107.98L130.53 84.29" stroke="#263238" stroke-width="0.5" stroke-linecap="round" stroke-linejoin="round"/>
<path id="Vector_14" d="M129.34 84.77C129.34 84.77 127.18 99.77 121.92 107.62" stroke="#263238" stroke-width="0.5" stroke-linecap="round" stroke-linejoin="round"/>
<path id="Vector_15" d="M126.71 104.63C126.71 104.63 124.31 109.18 122.64 111.57" stroke="#263238" stroke-width="0.5" stroke-linecap="round" stroke-linejoin="round"/>
<path id="Vector_16" d="M88.3 73.05C88.3 73.05 89.98 83.34 92.37 88.6C94.76 93.86 98.95 94.94 102.54 93.39C106.13 91.84 108.76 84.17 108.54 74.39" stroke="#263238" stroke-width="0.5" stroke-linecap="round" stroke-linejoin="round"/>
<path id="Vector_17" d="M79.81 51.51C79.81 51.51 77.53 47.57 75.74 49.6C73.95 51.63 77.18 56.3 78.97 57.85C80.76 59.4 82.08 58.45 81.97 56.78C81.86 55.11 79.81 51.51 79.81 51.51Z" fill="#035D81" stroke="#263238" stroke-linecap="round" stroke-linejoin="round"/>
<path id="Vector_18" opacity="0.5" d="M79.81 51.51C79.81 51.51 77.53 47.57 75.74 49.6C73.95 51.63 77.18 56.3 78.97 57.85C80.76 59.4 82.08 58.45 81.97 56.78C81.86 55.11 79.81 51.51 79.81 51.51Z" fill="white"/>
<path id="Vector_19" d="M79.81 51.51C79.81 51.51 77.53 47.57 75.74 49.6C73.95 51.63 77.18 56.3 78.97 57.85C80.76 59.4 82.08 58.45 81.97 56.78C81.86 55.11 79.81 51.51 79.81 51.51Z" stroke="#263238" stroke-linecap="round" stroke-linejoin="round"/>
<path id="Vector_20" d="M116 51.51C116 51.51 118.27 47.57 120.07 49.6C121.87 51.63 118.63 56.3 116.84 57.85C115.05 59.4 113.72 58.45 113.84 56.78C113.96 55.11 116 51.51 116 51.51Z" fill="#035D81" stroke="#263238" stroke-linecap="round" stroke-linejoin="round"/>
<path id="Vector_21" opacity="0.5" d="M116 51.51C116 51.51 118.27 47.57 120.07 49.6C121.87 51.63 118.63 56.3 116.84 57.85C115.05 59.4 113.72 58.45 113.84 56.78C113.96 55.11 116 51.51 116 51.51Z" fill="white"/>
<path id="Vector_22" d="M116 51.51C116 51.51 118.27 47.57 120.07 49.6C121.87 51.63 118.63 56.3 116.84 57.85C115.05 59.4 113.72 58.45 113.84 56.78C113.96 55.11 116 51.51 116 51.51Z" stroke="#263238" stroke-linecap="round" stroke-linejoin="round"/>
<path id="Vector_23" d="M90.57 70.42C91.6995 75.5261 93.1389 80.5588 94.88 85.49C97.04 90.87 101.1 90.87 102.78 87.4C104.46 83.93 105.53 71 105.53 71C105.53 71 94.28 72.57 90.57 70.42Z" fill="white" stroke="#263238" stroke-linecap="round" stroke-linejoin="round"/>
<path id="Vector_24" d="M80.05 52.83C80.05 52.83 83.16 63.83 89.05 70.3C94.94 76.77 97.05 78.3 100.18 77.83C103.31 77.36 106.64 73.29 111.3 64.83C115.96 56.37 116.3 49.88 116.69 49.28C117.08 48.68 115.69 36.72 109.03 31.57C102.37 26.42 94.91 24.16 88.45 29.78C81.99 35.4 77.89 44.57 80.05 52.83Z" fill="white"/>
<g id="Group_3">
<g id="Vector_25" style="mix-blend-mode:multiply" opacity="0.5">
<path d="M109 31.53C102.3 26.39 94.88 24.12 88.42 29.74C81.96 35.36 77.89 44.57 80.05 52.83C80.05 52.83 80.64 54.95 81.81 57.83C81.8066 57.4613 81.8571 57.0941 81.96 56.74C83.39 52.21 87.61 43.44 101.81 47.46C113.09 50.64 111.71 60.56 110.66 65.85L111.27 64.75C115.94 56.26 116.27 49.8 116.66 49.2C117.05 48.6 115.7 36.68 109 31.53Z" fill="#035D81"/>
</g>
</g>
<path id="Vector_26" d="M80.05 52.83C80.05 52.83 83.16 63.83 89.05 70.3C94.94 76.77 97.05 78.3 100.18 77.83C103.31 77.36 106.64 73.29 111.3 64.83C115.96 56.37 116.3 49.88 116.69 49.28C117.08 48.68 115.69 36.72 109.03 31.57C102.37 26.42 94.91 24.16 88.45 29.78C81.99 35.4 77.89 44.57 80.05 52.83Z" stroke="#263238" stroke-linecap="round" stroke-linejoin="round"/>
<path id="Vector_27" d="M100.15 58.57C99.7791 60.9057 99.5786 63.2652 99.55 65.63C99.67 68.02 100.39 68.74 99.31 68.98C98.23 69.22 97.04 67.54 97.04 67.54" stroke="#263238" stroke-linecap="round" stroke-linejoin="round"/>
<path id="Vector_28" d="M88.18 60.49C88.8732 60.9907 89.7016 61.2701 90.5564 61.2915C91.4113 61.3129 92.2526 61.0753 92.97 60.61" stroke="#263238" stroke-linecap="round" stroke-linejoin="round"/>
<path id="Vector_29" d="M103.38 60.49C104.072 60.9898 104.898 61.2688 105.751 61.2902C106.604 61.3116 107.444 61.0745 108.16 60.61" stroke="#263238" stroke-linecap="round" stroke-linejoin="round"/>
<path id="Vector_30" d="M95.82 56.46C95.82 56.46 93.54 50.83 86.01 53.46" stroke="#263238" stroke-linecap="round" stroke-linejoin="round"/>
<path id="Vector_31" d="M102.09 55.77C102.09 55.77 104 50.26 110.82 53.49" stroke="#263238" stroke-linecap="round" stroke-linejoin="round"/>
<path id="Vector_32" d="M97.27 60.9C97.27 63.98 93.74 66.47 89.38 66.47C85.02 66.47 81.48 63.98 81.48 60.9C81.48 57.82 84.78 56.54 89.14 56.54C93.5 56.54 97.27 57.83 97.27 60.9Z" stroke="#263238" stroke-linecap="round" stroke-linejoin="round"/>
<path id="Vector_33" d="M115.46 60.9C115.46 63.98 111.92 66.47 107.56 66.47C103.2 66.47 99.67 63.98 99.67 60.9C99.67 57.82 102.96 56.54 107.32 56.54C111.68 56.54 115.46 57.83 115.46 60.9Z" stroke="#263238" stroke-linecap="round" stroke-linejoin="round"/>
<path id="Vector_34" d="M14.63 156.83L14.14 278.06C14.14 278.442 14.2917 278.808 14.5618 279.078C14.8318 279.348 15.1981 279.5 15.58 279.5V279.5C15.9524 279.5 16.3102 279.355 16.5773 279.095C16.8443 278.836 16.9996 278.482 17.01 278.11L20.47 157L14.63 156.83Z" fill="white" stroke="#263238" stroke-linecap="round" stroke-linejoin="round"/>
<path id="Vector_35" d="M6.47001 185.17L6 310.5C5.99868 310.689 6.03501 310.877 6.10691 311.053C6.1788 311.228 6.28483 311.387 6.41881 311.521C6.55279 311.655 6.71206 311.761 6.88736 311.833C7.06267 311.905 7.25053 311.941 7.44001 311.94V311.94C7.81175 311.94 8.1692 311.797 8.4376 311.54C8.70599 311.282 8.86452 310.931 8.88001 310.56L12.33 185.33L6.47001 185.17Z" fill="white" stroke="#263238" stroke-linecap="round" stroke-linejoin="round"/>
<path id="Vector_36" d="M182.23 156.83L182.72 278.06C182.721 278.249 182.685 278.436 182.614 278.61C182.543 278.785 182.438 278.944 182.305 279.078C182.172 279.211 182.014 279.318 181.84 279.39C181.665 279.463 181.479 279.5 181.29 279.5V279.5C180.917 279.5 180.558 279.355 180.289 279.096C180.02 278.837 179.863 278.483 179.85 278.11L176.4 157L182.23 156.83Z" fill="white" stroke="#263238" stroke-linecap="round" stroke-linejoin="round"/>
<path id="Vector_37" d="M190.4 185.17L190.89 310.5C190.891 310.689 190.855 310.877 190.783 311.053C190.711 311.228 190.605 311.387 190.471 311.521C190.337 311.655 190.178 311.761 190.003 311.833C189.827 311.905 189.639 311.941 189.45 311.94V311.94C189.079 311.94 188.723 311.796 188.456 311.539C188.189 311.282 188.033 310.931 188.02 310.56L184.56 185.33L190.4 185.17Z" fill="white" stroke="#263238" stroke-linecap="round" stroke-linejoin="round"/>
<path id="Vector_38" d="M63.29 190.38L63 301.62C62.9683 301.898 63.0455 302.177 63.2151 302.398C63.3848 302.62 63.6339 302.768 63.91 302.81V302.81C64.1796 302.773 64.4248 302.634 64.5957 302.422C64.7666 302.21 64.8504 301.941 64.83 301.67L67 190.51L63.29 190.38Z" fill="white" stroke="#263238" stroke-linecap="round" stroke-linejoin="round"/>
<path id="Vector_39" d="M133.7 186.8L133.97 283.88C133.993 284.115 133.925 284.35 133.78 284.536C133.635 284.722 133.423 284.845 133.19 284.88C132.957 284.845 132.747 284.722 132.603 284.535C132.46 284.349 132.394 284.114 132.42 283.88L130.57 186.88L133.7 186.8Z" fill="white" stroke="#263238" stroke-linecap="round" stroke-linejoin="round"/>
<path id="Vector_40" d="M62.2 186.8L62.47 283.88C62.4931 284.115 62.425 284.35 62.2798 284.536C62.1347 284.722 61.9235 284.845 61.69 284.88C61.4573 284.845 61.247 284.722 61.1035 284.535C60.9599 284.349 60.8941 284.114 60.92 283.88L59.07 186.88L62.2 186.8Z" fill="white" stroke="#263238" stroke-linecap="round" stroke-linejoin="round"/>
<path id="Vector_41" d="M131.69 190.38L132 301.62C132.032 301.898 131.955 302.177 131.785 302.398C131.615 302.62 131.366 302.768 131.09 302.81C130.821 302.77 130.578 302.631 130.407 302.42C130.237 302.209 130.152 301.941 130.17 301.67L128 190.51L131.69 190.38Z" fill="white" stroke="#263238" stroke-linecap="round" stroke-linejoin="round"/>
<path id="Vector_42" d="M97 198.17C121.577 198.17 141.5 193.617 141.5 188C141.5 182.383 121.577 177.83 97 177.83C72.4233 177.83 52.5 182.383 52.5 188C52.5 193.617 72.4233 198.17 97 198.17Z" fill="white" stroke="#263238" stroke-linecap="round" stroke-linejoin="round"/>
<path id="Vector_43" d="M75.33 274.33C75.33 274.33 73 277.67 74.67 279.33C76.34 280.99 78 280.33 77.83 282C77.66 283.67 75 289.33 72.67 295.33C70.34 301.33 75.17 307.33 79.67 305.67C84.17 304.01 83.67 287.33 84.33 284.33C84.99 281.33 85.5 280.83 85.33 278C85.16 275.17 85 272.17 82.83 271.83C80.66 271.49 76.33 273.17 75.33 274.33Z" fill="white" stroke="#263238" stroke-linecap="round" stroke-linejoin="round"/>
<path id="Vector_44" d="M82.48 301.07C79.48 299.93 74.88 300.16 72.29 300.42C73.16 304.19 76.49 306.84 79.67 305.67C81 305.18 81.87 303.4 82.48 301.07Z" fill="#035D81" stroke="#263238" stroke-linecap="round" stroke-linejoin="round"/>
<path id="Vector_45" d="M70.17 267C70.17 267 75 275.17 76.33 277.33C77.66 279.49 82.17 278.83 82.67 275.83C83.17 272.83 80.83 264.5 80.83 264.5L70.83 267H70.17Z" fill="white" stroke="#263238" stroke-linecap="round" stroke-linejoin="round"/>
<path id="Vector_46" d="M58.67 254C58.67 254 57.33 256.17 58 257.67C58.67 259.17 60.5 263.5 61.67 265.67C62.84 267.84 68.17 269.17 74.33 268.17C80.49 267.17 84 264.33 84.17 261.83C84.34 259.33 83.17 256 82.33 252C81.49 248 79.33 248.17 76.33 248.17C73.33 248.17 61.17 251.67 58.67 254Z" fill="#035D81" stroke="#263238" stroke-linecap="round" stroke-linejoin="round"/>
<path id="Vector_47" d="M76.67 205C76.76 200.9 79.13 198.88 79.31 196.07C79.5921 192.355 79.2849 188.619 78.4 185L73.84 178.77C60.72 178.94 51.32 179.16 51.17 179.21C50.67 179.37 50.33 182.21 50 184.54C50 184.54 44.43 185.25 45.43 200.75C45.57 202.91 51.19 227.9 51.6 230.75C54.1 248.16 59.67 256.88 59.67 256.88C59.67 256.88 60.17 259.05 66.67 258.55C73.17 258.05 79.67 253.72 79.67 253.72C79.67 253.72 76.33 219.83 76.67 205Z" fill="#263238" stroke="#263238" stroke-linecap="round" stroke-linejoin="round"/>
<path id="Vector_48" d="M49.1 182C49.1 182 42.21 183 37.99 187.82C33.77 192.64 37.35 195.82 45.55 194.96C53.75 194.1 63.21 185.71 63.61 185.26C64.01 184.81 55.06 179.11 49.1 182Z" fill="white" stroke="#263238" stroke-linecap="round" stroke-linejoin="round"/>
<path id="Vector_49" d="M61.33 185C65.7198 185.226 70.0753 185.896 74.33 187C80 188.67 90 192 92.33 192C94.66 192 94 183.33 94 181.67C94 180.01 64 179 60.33 179C56.66 179 61.33 185 61.33 185Z" fill="white" stroke="#263238" stroke-linecap="round" stroke-linejoin="round"/>
<path id="Vector_50" d="M94 181.67C94 181.67 91.33 183 90.33 188C89.33 193 88 195.67 90 197C92 198.33 100.67 199.33 102 198C103.33 196.67 107 190 107.67 185.67C108.34 181.34 94 181.67 94 181.67Z" fill="#035D81" stroke="#263238" stroke-linecap="round" stroke-linejoin="round"/>
<path id="Vector_51" d="M105.33 183.33C103.78 185.109 102.542 187.138 101.67 189.33C100.963 191.625 100.405 193.963 100 196.33C103.19 197.205 106.309 198.321 109.33 199.67C114.67 202 123.67 203.67 132.33 205.67C140.99 207.67 143.33 209.67 146.33 209.67C149.33 209.67 153 207.33 157.67 201.67C162.34 196.01 158.33 184 153.67 180.33C149.01 176.66 124 173.67 120.67 174.67C117.34 175.67 105.33 183.33 105.33 183.33Z" fill="#263238" stroke="#263238" stroke-linecap="round" stroke-linejoin="round"/>
<path id="Vector_52" d="M42.79 195.05C42.1314 192.058 40.7974 189.257 38.89 186.86C38.58 187.15 38.28 187.45 37.99 187.78C34.28 192 36.6 195 42.79 195.05Z" fill="#035D81" stroke="#263238" stroke-linecap="round" stroke-linejoin="round"/>
<path id="Vector_53" d="M76.16 197.69C76.16 197.69 72.72 234.5 65.7 240.23" stroke="white" stroke-width="0.5" stroke-linecap="round" stroke-linejoin="round"/>
<path id="Vector_54" d="M73.73 232.63C73.73 232.63 71 244.63 63.84 249.4" stroke="white" stroke-width="0.5" stroke-linecap="round" stroke-linejoin="round"/>
<path id="Vector_55" d="M118 191C118 191 107.33 191.67 114.33 196.33C121.33 200.99 134 204 134 204" stroke="white" stroke-width="0.5" stroke-linecap="round" stroke-linejoin="round"/>
<path id="Vector_56" d="M195.46 178.39L191.86 175.15L183.54 157.15C183.145 156.331 182.526 155.641 181.754 155.162C180.982 154.682 180.089 154.431 179.18 154.44H17.58C16.6693 154.43 15.7745 154.679 15.0005 155.159C14.2265 155.639 13.6054 156.33 13.21 157.15L2.84 179.57L1.13 178.94V184.07L1.21001 184.01C1.31187 184.694 1.65924 185.318 2.18733 185.766C2.71542 186.213 3.38816 186.452 4.08 186.44H192.67C193.399 186.457 194.105 186.19 194.641 185.695C195.176 185.201 195.499 184.518 195.54 183.79L195.46 178.39Z" fill="#263238" stroke="#263238" stroke-linecap="round" stroke-linejoin="round"/>
<path id="Vector_57" d="M192.67 181.75H4.08C3.61297 181.769 3.14888 181.668 2.73124 181.458C2.3136 181.249 1.9561 180.936 1.69224 180.55C1.42838 180.164 1.26682 179.718 1.2227 179.253C1.17858 178.787 1.25335 178.319 1.44 177.89L13.21 152.46C13.6035 151.638 14.2241 150.946 14.9986 150.466C15.773 149.985 16.6688 149.737 17.58 149.75H179.18C180.089 149.739 180.983 149.988 181.756 150.468C182.528 150.949 183.147 151.64 183.54 152.46L195.31 177.89C195.497 178.319 195.571 178.787 195.527 179.253C195.483 179.718 195.322 180.164 195.058 180.55C194.794 180.936 194.436 181.249 194.019 181.458C193.601 181.668 193.137 181.769 192.67 181.75V181.75Z" fill="white" stroke="#263238" stroke-linecap="round" stroke-linejoin="round"/>
<g id="Vector_58" style="mix-blend-mode:multiply" opacity="0.5">
<path d="M13.63 164.67C13.63 164.67 9.36 167.6 12.03 168.67C14.7 169.74 45.39 168.94 49.13 167.87C52.87 166.8 57.13 156.93 57.13 155.33C57.13 153.73 51.75 152.58 49.77 152.49C47.79 152.4 21.63 153.99 21.63 153.99L13.63 164.67Z" fill="#035D81"/>
</g>
<g id="Vector_59" style="mix-blend-mode:multiply" opacity="0.5">
<path d="M166.29 169.74C172.332 169.74 177.23 167.707 177.23 165.2C177.23 162.693 172.332 160.66 166.29 160.66C160.248 160.66 155.35 162.693 155.35 165.2C155.35 167.707 160.248 169.74 166.29 169.74Z" fill="#035D81"/>
</g>
<g id="Vector_60" style="mix-blend-mode:multiply" opacity="0.5">
<path d="M96.64 175.35C118.306 175.35 135.87 172.064 135.87 168.01C135.87 163.956 118.306 160.67 96.64 160.67C74.9739 160.67 57.41 163.956 57.41 168.01C57.41 172.064 74.9739 175.35 96.64 175.35Z" fill="#035D81"/>
</g>
<path id="Vector_61" d="M158.29 147.34C158.29 147.34 157.57 144.47 155.18 145.43C152.79 146.39 153.03 152.73 153.5 156.32C153.97 159.91 157.21 158.23 157.21 158.23V156.08C157.21 156.08 156.02 157.03 155.42 155.72C154.82 154.41 154.94 147.82 155.54 147.94C156.14 148.06 157.33 150.09 157.33 150.09C157.33 150.09 157.69 149.86 158.29 147.34Z" fill="#035D81" stroke="#263238" stroke-linecap="round" stroke-linejoin="round"/>
<path id="Vector_62" d="M156.57 147.82V163.54C156.57 165.39 160.82 166.89 166.07 166.89C171.32 166.89 175.56 165.39 175.56 163.54V147.82H156.57Z" fill="#035D81" stroke="#263238" stroke-linecap="round" stroke-linejoin="round"/>
<path id="Vector_63" d="M175.56 147.82C175.56 149.42 171.31 150.71 166.07 150.71C160.83 150.71 156.57 149.42 156.57 147.82C156.57 146.22 160.82 144.93 166.07 144.93C171.32 144.93 175.56 146.23 175.56 147.82Z" fill="white" stroke="#263238" stroke-linecap="round" stroke-linejoin="round"/>
<path id="Vector_64" d="M174.32 147.82C174.32 149.21 170.62 150.33 166.07 150.33C161.52 150.33 157.81 149.21 157.81 147.82C157.81 146.43 161.51 145.31 166.07 145.31C170.63 145.31 174.32 146.43 174.32 147.82Z" fill="white" stroke="#263238" stroke-linecap="round" stroke-linejoin="round"/>
<path id="Vector_65" d="M159.7 149.42C163.857 150.633 168.273 150.633 172.43 149.42C168.273 148.207 163.857 148.207 159.7 149.42V149.42Z" fill="#263238" stroke="#263238" stroke-linecap="round" stroke-linejoin="round"/>
<path id="Vector_66" d="M12.45 155L12.57 160.38L48.82 160.74V154.52L12.45 155Z" fill="white" stroke="#263238" stroke-linecap="round" stroke-linejoin="round"/>
<path id="Vector_67" d="M48.82 160.74L54.09 149.38V146.03L48.58 155.6L48.82 160.74Z" fill="white" stroke="#263238" stroke-linecap="round" stroke-linejoin="round"/>
<path id="Vector_68" d="M12.45 159.9L12.57 165.29L48.82 165.65V159.43L12.45 159.9Z" fill="white" stroke="#263238" stroke-linecap="round" stroke-linejoin="round"/>
<path id="Vector_69" d="M48.82 165.65L54.09 154.28V150.93L48.58 160.5L48.82 165.65Z" fill="white" stroke="#263238" stroke-linecap="round" stroke-linejoin="round"/>
<path id="Vector_70" d="M26.45 141.36C26.45 141.36 27.29 139.69 26.09 138.97C24.89 138.25 23.58 139.97 22.86 140.52C22.14 141.07 7.07 151.05 6.59 152.61C6.11 154.17 6.59001 157.61 9.82001 157.99C13.05 158.37 15.92 156.2 17.36 155.84C18.8 155.48 19.36 155.36 19.36 155.36L29.29 141.96L26.45 141.36Z" fill="white" stroke="#263238" stroke-linecap="round" stroke-linejoin="round"/>
<path id="Vector_71" d="M9.82 158C13.05 158.36 15.92 156.21 17.36 155.85C18.8 155.49 19.36 155.37 19.36 155.37L19.72 154.88L10.39 152.98C9.88276 152.502 9.23059 152.207 8.53683 152.142C7.84307 152.077 7.14738 152.245 6.55999 152.62C6.10999 154.16 6.59 157.63 9.82 158Z" fill="white" stroke="#263238" stroke-linecap="round" stroke-linejoin="round"/>
<path id="Vector_72" d="M10.42 153H38.42C47.16 153 49.79 152.52 49.79 152.52L55.17 141.39C55.17 141.39 38.17 142.47 32.92 142.11C30.7506 142.047 28.59 141.807 26.46 141.39L10.42 153Z" fill="white" stroke="#263238" stroke-linecap="round" stroke-linejoin="round"/>
<path id="Vector_73" d="M10.42 153L10.9 155.15C10.9 155.15 33.63 155.27 39.61 155.27C45.59 155.27 50.14 155.51 50.14 155.51L49.78 152.51L10.42 153Z" fill="white" stroke="#263238" stroke-linecap="round" stroke-linejoin="round"/>
<path id="Vector_74" d="M50.14 155.48L55.16 143.99V141.36L49.78 152.49L50.14 155.48Z" fill="white" stroke="#263238" stroke-linecap="round" stroke-linejoin="round"/>
<path id="Vector_75" d="M130.9 168.92H62.35C62.1981 168.921 62.0475 168.893 61.9068 168.835C61.7662 168.778 61.6382 168.694 61.5303 168.587C61.4225 168.48 61.3369 168.353 61.2785 168.212C61.2201 168.072 61.19 167.922 61.19 167.77C61.19 167.618 61.2201 167.468 61.2785 167.328C61.3369 167.187 61.4225 167.06 61.5303 166.953C61.6382 166.846 61.7662 166.762 61.9068 166.705C62.0475 166.647 62.1981 166.619 62.35 166.62H130.9C131.051 166.619 131.202 166.648 131.342 166.705C131.482 166.762 131.609 166.847 131.716 166.954C131.823 167.061 131.908 167.188 131.965 167.328C132.022 167.468 132.051 167.619 132.05 167.77C132.051 167.921 132.022 168.072 131.965 168.212C131.908 168.352 131.823 168.479 131.716 168.586C131.609 168.693 131.482 168.778 131.342 168.835C131.202 168.893 131.051 168.921 130.9 168.92V168.92Z" fill="white" stroke="#263238" stroke-linecap="round" stroke-linejoin="round"/>
<path id="Vector_76" d="M131.48 166.6H61.76C61.5049 166.6 61.2592 166.503 61.0733 166.329C60.8874 166.154 60.7753 165.915 60.76 165.66L56.97 120.11C56.9529 119.969 56.9661 119.826 57.0087 119.69C57.0513 119.555 57.1222 119.43 57.2168 119.324C57.3114 119.218 57.4275 119.133 57.5574 119.076C57.6873 119.018 57.8279 118.989 57.97 118.99H135.28C135.422 118.989 135.563 119.018 135.693 119.076C135.822 119.133 135.939 119.218 136.033 119.324C136.128 119.43 136.199 119.555 136.241 119.69C136.284 119.826 136.297 119.969 136.28 120.11L132.49 165.66C132.475 165.916 132.361 166.157 132.173 166.332C131.985 166.507 131.737 166.603 131.48 166.6V166.6Z" fill="white" stroke="#263238" stroke-linecap="round" stroke-linejoin="round"/>
<path id="Vector_77" d="M103.2 143.58C103.2 146.3 100.25 148.5 96.62 148.5C92.99 148.5 90.03 146.3 90.03 143.58C90.03 140.86 92.98 138.67 96.62 138.67C100.26 138.67 103.2 140.87 103.2 143.58Z" fill="white" stroke="#263238" stroke-linecap="round" stroke-linejoin="round"/>
<path id="Vector_78" d="M171.33 108C172.399 107.166 173.151 105.991 173.46 104.67C173.685 103.68 173.661 102.649 173.39 101.67" stroke="#263238" stroke-linecap="round" stroke-linejoin="round"/>
<path id="Vector_79" d="M163.35 143.66C163.35 143.66 170 139.66 167.83 135.09C165.66 130.52 158.32 127.49 158.32 120.37C158.32 114.23 164.85 111.96 169.11 109.5" stroke="#263238" stroke-linecap="round" stroke-linejoin="round"/>
<path id="Vector_80" d="M169.49 143.53C169.49 143.53 173.2 141.06 173.2 137.14C173.2 134.51 170.39 132.79 166.68 128.56" stroke="#263238" stroke-linecap="round" stroke-linejoin="round"/>
<path id="Vector_81" d="M164.63 126C164.63 126 162.2 124.09 163.99 120.5" stroke="#263238" stroke-linecap="round" stroke-linejoin="round"/>
<path id="Vector_82" d="M108.33 21.25C109.52 21 112.07 20.02 113.79 16.03C113.816 15.9696 113.831 15.9046 113.832 15.8387C113.833 15.7728 113.821 15.7072 113.797 15.6459C113.773 15.5846 113.737 15.5286 113.691 15.4813C113.645 15.4339 113.591 15.3961 113.53 15.37C113.408 15.3192 113.271 15.3179 113.147 15.3664C113.024 15.415 112.925 15.5095 112.87 15.63C111.29 19.29 109.03 20.1 108.09 20.28C109.772 18.2442 110.701 15.6908 110.72 13.05C110.72 6.11 104.29 0.48999 96.36 0.48999C88.43 0.48999 82 6.11 82 13.05C82.0054 15.5843 82.8493 18.0455 84.4 20.05C82.89 19.97 80.34 20.61 77.11 24.38C77.0178 24.4751 76.9662 24.6025 76.9662 24.735C76.9662 24.8675 77.0178 24.9948 77.11 25.09C77.2028 25.167 77.3194 25.2095 77.44 25.21C77.5127 25.2101 77.5846 25.194 77.6503 25.1628C77.716 25.1317 77.774 25.0863 77.82 25.03C81.95 20.22 84.68 21.03 85.23 21.25C84.2962 21.7636 83.4211 22.3772 82.62 23.08C78.01 27.23 75.2 35.08 75.56 41.62C75.9647 45.9576 77.537 50.1045 80.11 53.62C83.4583 51.2237 86.2347 48.1161 88.24 44.52C89.7344 41.8785 91.0701 39.1504 92.24 36.35C92.24 39.28 92.62 42.82 94.16 45.35C95.2709 47.3484 96.8984 49.0116 98.8722 50.1656C100.846 51.3196 103.094 51.9221 105.38 51.91C106.169 51.9213 106.958 51.8442 107.73 51.68C107.798 51.663 107.861 51.632 107.917 51.5889C107.972 51.5459 108.017 51.4917 108.05 51.43C111.91 52.25 115.75 52.18 116.34 51.36C117.29 50.05 118.64 45.96 119.09 40.96C119.91 32.48 114.57 25.12 108.33 21.25ZM95.09 44.74C93.15 41.57 93.21 36.4 93.44 33.43L93.57 33.09C93.6622 36.1446 94.4409 39.1393 95.8483 41.852C97.2557 44.5646 99.2557 46.9257 101.7 48.76C103.05 49.6933 104.548 50.393 106.13 50.83C103.68 51 98.64 50.53 95.09 44.74V44.74Z" fill="#263238"/>
<path id="Vector_83" d="M95.26 29C95.26 29 94.44 35.06 102.14 41C109.84 46.94 117.14 44.6 117.14 44.6" stroke="white" stroke-width="0.5" stroke-linecap="round" stroke-linejoin="round"/>
<path id="Vector_84" d="M96.39 27C96.39 27 104.5 38.81 115.7 35.73" stroke="white" stroke-width="0.5" stroke-linecap="round" stroke-linejoin="round"/>
<path id="Vector_85" d="M92.38 23.07C91.1011 22.4206 89.6683 22.135 88.2382 22.2443C86.808 22.3537 85.4354 22.8537 84.27 23.69C79.96 26.56 77.8 33.34 77.8 33.34" stroke="white" stroke-width="0.5" stroke-linecap="round" stroke-linejoin="round"/>
<path id="Vector_86" d="M92.59 26.36C92.59 26.36 89.1 25.43 86.94 27.59C85.8873 28.544 84.9869 29.6535 84.27 30.88" stroke="white" stroke-width="0.5" stroke-linecap="round" stroke-linejoin="round"/>
</g>
</svg>
