<svg width="28" height="40" viewBox="0 0 28 40" fill="none" xmlns="http://www.w3.org/2000/svg">
<path fill-rule="evenodd" clip-rule="evenodd" d="M16.532 2.275C15.582 2.008 14.319 2 13.058 2C11.742 2 10.843 2.284 10.215 2.686C9.59101 3.086 9.16001 3.653 8.86201 4.353C8.29401 5.685 8.24801 7.39 8.30501 9H27C27.552 9 28.006 9.45 27.943 9.998C27.301 15.606 21.303 20 14 20C6.69601 20 0.699015 15.606 0.0570147 9.998C-0.00598533 9.45 0.447015 9 1.00001 9H6.30402C6.24702 7.367 6.28301 5.302 7.02201 3.569C7.44601 2.574 8.11201 1.659 9.13501 1.003C10.155 0.35 11.452 0 13.058 0H13.13C14.302 0 15.83 -8.9407e-08 17.074 0.35C17.722 0.532 18.386 0.833 18.894 1.36C19.429 1.912 19.717 2.637 19.717 3.5C19.717 3.76522 19.6117 4.01957 19.4241 4.20711C19.2366 4.39464 18.9822 4.5 18.717 4.5C18.4518 4.5 18.1974 4.39464 18.0099 4.20711C17.8224 4.01957 17.717 3.76522 17.717 3.5C17.717 3.113 17.602 2.9 17.457 2.75C17.286 2.573 16.994 2.405 16.532 2.275V2.275ZM2.30601 11C3.48101 14.76 7.97301 18 14 18C20.027 18 24.52 14.76 25.694 11H2.30601ZM6.00001 38V40H22V38H6.00001Z" fill="#071E2E" fill-opacity="0.8"/>
<path fill-rule="evenodd" clip-rule="evenodd" d="M21.129 16.408C21.759 17.266 22 18.268 22 19.303C22 20.848 21.458 22.286 20.05 23.29C19.062 23.994 17.72 24.432 16 24.615V22.602C17.376 22.432 18.294 22.085 18.888 21.662C19.668 21.106 20 20.339 20 19.302C20 18.579 19.835 18.025 19.517 17.592L21.129 16.408V16.408ZM12 22.736V24.738C11.033 24.775 10.182 24.866 9.494 25.088C8.955 25.261 8.603 25.491 8.381 25.767C8.168 26.031 8 26.431 8 27.096C8 27.764 8.168 28.166 8.382 28.432C8.604 28.709 8.957 28.94 9.495 29.114C10.615 29.476 12.168 29.49 13.954 29.49L13.974 29.488C14.018 29.485 14.08 29.48 14.156 29.478C14.308 29.471 14.52 29.468 14.771 29.479C15.4147 29.505 16.0509 29.6264 16.659 29.839C17.366 30.095 18.126 30.537 18.707 31.295C19.295 32.062 19.637 33.073 19.637 34.353C19.637 35.632 19.295 36.636 18.693 37.386C18.099 38.127 17.323 38.531 16.609 38.747C16.403 38.81 16.199 38.857 16 38.894V36.842L16.03 36.833C16.475 36.698 16.858 36.477 17.133 36.135C17.401 35.801 17.638 35.262 17.638 34.353C17.638 33.445 17.401 32.879 17.119 32.511C16.831 32.135 16.431 31.884 15.979 31.721C15.56 31.5764 15.1219 31.4942 14.679 31.477C14.4964 31.4684 14.3134 31.4701 14.131 31.482L14.108 31.484H14.106L14.056 31.49H13.893C12.225 31.49 10.343 31.49 8.88 31.017C8.106 30.767 7.365 30.361 6.822 29.684C6.269 28.994 6 28.124 6 27.096C6 26.069 6.27 25.2 6.823 24.513C7.366 23.838 8.107 23.433 8.881 23.184C9.807 22.886 10.899 22.776 12 22.736V22.736Z" fill="#071E2E" fill-opacity="0.8"/>
<path fill-rule="evenodd" clip-rule="evenodd" d="M13.115 32V38.5H15.115V32H13.115ZM13.115 28H15.115V18.5H13.115V28Z" fill="#071E2E" fill-opacity="0.8"/>
</svg>
