<svg width="605" height="1092" viewBox="0 0 605 1092" fill="none" xmlns="http://www.w3.org/2000/svg">
<path fill-rule="evenodd" clip-rule="evenodd" d="M454.537 4.00186L441.672 49.1604C428.806 94.3189 403.075 184.636 339.763 274.672C276.45 364.708 175.556 454.463 99.7168 544.406C23.8772 634.348 -26.9081 724.478 22.5238 815.357C71.9558 906.236 221.605 997.864 296.43 1043.68L371.254 1089.49L596.743 1091.18L597.081 1045.93C597.42 1000.67 598.096 910.17 598.773 819.665C599.45 729.161 600.126 638.656 600.803 548.152C601.48 457.648 602.157 367.143 602.833 276.639C603.51 186.135 604.187 95.6302 604.525 50.378L604.863 5.12582L454.537 4.00186Z" fill="url(#paint0_linear)"/>
<defs>
<linearGradient id="paint0_linear" x1="4.38359" y1="543.693" x2="606.058" y2="409.749" gradientUnits="userSpaceOnUse">
<stop stop-color="#1ECBD1"/>
<stop offset="0.456907" stop-color="#00A7E3"/>
<stop offset="1" stop-color="#00A7E3"/>
</linearGradient>
</defs>
</svg>
