<svg width="2000" height="2000" viewBox="0 0 2000 2000" fill="none" xmlns="http://www.w3.org/2000/svg">
<path d="M1130.71 627.789C1091.73 602.385 1048.01 584.659 1002.32 575.694L1002.92 473.177H860.655L860.922 576.499C838.467 581.161 816.15 587.889 794.288 597.005C772.427 606.15 752.071 617.332 733.13 629.971L658.874 556.609L559.424 656.635L633.588 729.899C608.03 768.716 590.23 812.111 581.238 857.663L475.947 857.853V998.58L582.105 998.198C586.76 1020.42 593.516 1042.69 602.69 1064.37C611.91 1086.19 623.091 1106.45 635.87 1125.22" stroke="#00A7E3" stroke-width="70" stroke-linecap="round"/>
<path d="M1205.4 1585.73V1477.21C1227.77 1472.74 1250.09 1465.91 1271.9 1456.86C1293.76 1447.69 1314.16 1436.5 1333.24 1423.83L1409.05 1498.57L1508.55 1398.69L1432.69 1323.94C1458.25 1285.12 1476.05 1241.71 1485.09 1196.11L1588.05 1195.47V1054.89L1484.18 1055.52C1479.52 1033.25 1472.86 1011.17 1463.64 989.413C1454.42 967.619 1443.24 947.329 1430.46 928.468L1502.25 856.495L1401.75 757.5L1330.05 829.446C1291.07 804.043 1247.35 786.317 1201.66 777.351L1202.25 674.835H1059.99L1060.26 778.157C1037.8 782.819 1015.49 789.543 993.625 798.66C971.764 807.805 951.408 818.988 932.466 831.627L858.211 758.264L758.76 858.291L832.926 931.555C807.366 970.37 789.566 1013.77 780.575 1059.32L675.282 1059.51V1200.23L781.442 1199.85C786.096 1222.07 792.852 1244.34 802.025 1266.02C811.245 1287.84 822.427 1308.11 835.207 1326.87L759.078 1402.7L859.624 1501.52L935.569 1425.92C974.546 1451.48 1018.27 1469.14 1064 1478.07L1064.05 1585.68C1111.14 1586.04 1205.4 1585.73 1205.4 1585.73L1205.4 1585.73Z" stroke="#00A7E3" stroke-width="69.9997" stroke-linecap="round"/>
<path d="M1132.25 1247.31C1199.98 1247.31 1254.89 1192.41 1254.89 1124.67C1254.89 1056.94 1199.98 1002.04 1132.25 1002.04C1064.52 1002.04 1009.61 1056.94 1009.61 1124.67C1009.61 1192.41 1064.52 1247.31 1132.25 1247.31Z" stroke="#00A7E3" stroke-width="69.9997" stroke-linecap="square"/>
</svg>
