<svg width="500" height="500" viewBox="0 0 500 500" fill="none" xmlns="http://www.w3.org/2000/svg">
<path d="M255.48 442.86C362.071 442.86 448.48 427.512 448.48 408.58C448.48 389.648 362.071 374.3 255.48 374.3C148.889 374.3 62.48 389.648 62.48 408.58C62.48 427.512 148.889 442.86 255.48 442.86Z" fill="#DDDDDD"/>
<path opacity="0.5" d="M255.48 442.86C362.071 442.86 448.48 427.512 448.48 408.58C448.48 389.648 362.071 374.3 255.48 374.3C148.889 374.3 62.48 389.648 62.48 408.58C62.48 427.512 148.889 442.86 255.48 442.86Z" fill="white"/>
<path d="M444.74 231.33C444.74 231.33 444.74 227.13 438.86 221.24C432.98 215.35 429.19 212 429.19 212C429.19 212 426.25 221.66 431.71 227.55C435.721 231.684 440.069 235.477 444.71 238.89L444.74 231.33Z" fill="#00A7E3"/>
<path d="M436.2 257.57C436.2 257.57 436.2 253.37 430.32 247.49C424.44 241.61 420.66 238.24 420.66 238.24C420.66 238.24 417.66 247.91 423.18 253.79C427.19 257.926 431.538 261.719 436.18 265.13L436.2 257.57Z" fill="#00A7E3"/>
<path d="M444.37 238.49C444.37 238.49 444.81 234.31 451.29 229.08C457.77 223.85 461.87 220.91 461.87 220.91C461.87 220.91 463.78 230.83 457.72 236.1C453.287 239.788 448.554 243.099 443.57 246L444.37 238.49Z" fill="#00A7E3"/>
<path d="M434.06 269.48C434.06 269.48 434.94 265.37 441.92 260.85C448.9 256.33 453.31 253.85 453.31 253.85C453.31 253.85 454.16 263.92 447.59 268.53C442.79 271.73 437.732 274.527 432.47 276.89L434.06 269.48Z" fill="#00A7E3"/>
<path d="M436 303.27C436 303.27 436 299.06 441.88 293.18C447.76 287.3 451.54 283.94 451.54 283.94C451.54 283.94 454.48 293.6 449.02 299.48C445.012 303.621 440.664 307.417 436.02 310.83L436 303.27Z" fill="#00A7E3"/>
<path d="M435.9 311.51C435.9 311.51 436.49 307.35 431.51 300.69C426.53 294.03 423.26 290.17 423.26 290.17C423.26 290.17 418.97 299.32 423.54 305.92C426.928 310.587 430.701 314.963 434.82 319L435.9 311.51Z" fill="#00A7E3"/>
<path d="M430.1 336C430.1 336 430.1 331.8 435.98 325.92C441.86 320.04 445.64 316.68 445.64 316.68C445.64 316.68 448.59 326.34 443.12 332.22C439.112 336.361 434.764 340.157 430.12 343.57L430.1 336Z" fill="#00A7E3"/>
<path d="M434 358.12C434 358.12 432.93 354.05 437.13 346.87C441.33 339.69 444.13 335.48 444.13 335.48C444.13 335.48 449.42 344.08 445.63 351.16C442.788 356.178 439.533 360.951 435.9 365.43L434 358.12Z" fill="#00A7E3"/>
<path d="M445.27 230.25C444.976 234.627 444.439 238.983 443.66 243.3C441.34 255.3 435.52 263.06 433.2 273.92C430.88 284.78 437.55 298.75 435.76 312.69C433.97 326.63 428.55 334.38 430.1 343.69C431.65 353 439.97 379.09 439.97 379.09" stroke="#263238" stroke-width="0.75" stroke-linecap="round" stroke-linejoin="round"/>
<path d="M444.31 241.28L450.65 236.41" stroke="#263238" stroke-width="0.75" stroke-linecap="round" stroke-linejoin="round"/>
<path d="M444.61 235.68L441.95 230.96" stroke="#263238" stroke-width="0.75" stroke-linecap="round" stroke-linejoin="round"/>
<path d="M433.55 273.42C433.55 273.42 438.86 269.42 444.31 265.42" stroke="#263238" stroke-width="0.75" stroke-linecap="round" stroke-linejoin="round"/>
<path d="M435.92 264.39C433.334 259.536 430.269 254.953 426.77 250.71" stroke="#263238" stroke-width="0.75" stroke-linecap="round" stroke-linejoin="round"/>
<path d="M436.2 309.24C439.23 303.656 443.057 298.543 447.56 294.06" stroke="#263238" stroke-width="0.75" stroke-linecap="round" stroke-linejoin="round"/>
<path d="M435.17 315.14C433.561 311.349 431.638 307.7 429.42 304.23C426.33 299.66 425.88 299.07 425.88 299.07" stroke="#263238" stroke-width="0.75" stroke-linecap="round" stroke-linejoin="round"/>
<path d="M430.1 343.68C431.442 340.338 433.04 337.105 434.88 334.01C436.717 331.141 438.788 328.429 441.07 325.9" stroke="#263238" stroke-width="0.75" stroke-linecap="round" stroke-linejoin="round"/>
<path d="M435.94 365.43C435.634 362.244 436.183 359.034 437.53 356.13C439.74 351.85 442.25 346.25 443.28 344.04" stroke="#263238" stroke-width="0.75" stroke-linecap="round" stroke-linejoin="round"/>
<path d="M406.22 287.46C406.22 287.46 405.76 284.83 408.81 280.46C411.86 276.09 413.87 273.61 413.87 273.61C413.87 273.61 416.76 279.36 413.98 283.61C411.907 286.641 409.586 289.494 407.04 292.14L406.22 287.46Z" fill="#00A7E3"/>
<path d="M414.42 303C414.42 303 413.97 300.37 417.02 296C420.07 291.63 422.07 289.15 422.07 289.15C422.07 289.15 424.97 294.89 422.18 299.15C420.108 302.179 417.787 305.029 415.24 307.67L414.42 303Z" fill="#00A7E3"/>
<path d="M407.23 291.91C407.23 291.91 406.5 289.34 401.87 286.76C397.24 284.18 394.34 282.76 394.34 282.76C394.34 282.76 394.23 289.19 398.6 291.83C401.78 293.666 405.108 295.231 408.55 296.51L407.23 291.91Z" fill="#00A7E3"/>
<path d="M417.06 310.22C417.06 310.22 416.06 307.74 411.19 305.67C406.32 303.6 403.29 302.51 403.29 302.51C403.29 302.51 403.85 308.91 408.47 311.09C411.827 312.577 415.303 313.781 418.86 314.69L417.06 310.22Z" fill="#00A7E3"/>
<path d="M419.51 331.62C419.51 331.62 419.06 328.99 414.73 325.94C410.4 322.89 407.66 321.19 407.66 321.19C407.66 321.19 406.87 327.57 410.93 330.67C413.901 332.825 417.045 334.732 420.33 336.37L419.51 331.62Z" fill="#00A7E3"/>
<path d="M420.47 336.78C420.47 336.78 419.64 334.24 422.05 329.52C424.46 324.8 426.05 322.03 426.05 322.03C426.05 322.03 429.73 327.3 427.58 331.93C425.964 335.226 424.074 338.38 421.93 341.36L420.47 336.78Z" fill="#00A7E3"/>
<path d="M427.85 358C427.85 358 428.16 355.34 432.3 352C436.44 348.66 439.08 346.86 439.08 346.86C439.08 346.86 440.24 353.18 436.36 356.5C433.521 358.828 430.49 360.912 427.3 362.73L427.85 358Z" fill="#00A7E3"/>
<path d="M426.76 351.48C426.76 351.48 426.3 348.85 421.98 345.8C417.66 342.75 414.91 341.05 414.91 341.05C414.91 341.05 414.12 347.43 418.18 350.52C421.148 352.683 424.292 354.593 427.58 356.23L426.76 351.48Z" fill="#00A7E3"/>
<path d="M426.7 365.81C426.7 365.81 426.93 363.14 423.51 359.09C420.09 355.04 417.88 352.71 417.88 352.71C417.88 352.71 415.5 358.71 418.65 362.71C420.974 365.55 423.533 368.19 426.3 370.6L426.7 365.81Z" fill="#00A7E3"/>
<path d="M405.77 286.85C406.434 289.558 407.241 292.228 408.19 294.85C410.96 302.13 415.44 306.36 418.08 312.92C420.72 319.48 418.08 328.92 420.68 337.51C423.28 346.1 427.56 350.32 427.6 356.32C427.64 362.32 425.27 379 425.27 379" stroke="#263238" stroke-width="0.75" stroke-linecap="round" stroke-linejoin="round"/>
<path d="M407.57 293.66L403.06 291.29" stroke="#263238" stroke-width="0.75" stroke-linecap="round" stroke-linejoin="round"/>
<path d="M406.77 290.17L407.93 286.93" stroke="#263238" stroke-width="0.75" stroke-linecap="round" stroke-linejoin="round"/>
<path d="M417.81 312.64C417.81 312.64 414.04 310.72 410.19 308.82" stroke="#263238" stroke-width="0.75" stroke-linecap="round" stroke-linejoin="round"/>
<path d="M415.21 306.91C416.409 303.713 417.875 300.622 419.59 297.67" stroke="#263238" stroke-width="0.75" stroke-linecap="round" stroke-linejoin="round"/>
<path d="M420 335.39C417.491 332.219 414.537 329.427 411.23 327.1" stroke="#263238" stroke-width="0.75" stroke-linecap="round" stroke-linejoin="round"/>
<path d="M421.32 339C421.916 336.447 422.726 333.948 423.74 331.53C425.18 328.33 425.4 327.92 425.4 327.92" stroke="#263238" stroke-width="0.75" stroke-linecap="round" stroke-linejoin="round"/>
<path d="M427.39 360.88C428.856 359.074 430.479 357.401 432.24 355.88C433.358 355.052 434.408 354.136 435.38 353.14" stroke="#263238" stroke-width="0.75" stroke-linecap="round" stroke-linejoin="round"/>
<path d="M427.6 356.32C426.394 354.372 425.04 352.52 423.55 350.78C422.086 349.183 420.494 347.708 418.79 346.37" stroke="#263238" stroke-width="0.75" stroke-linecap="round" stroke-linejoin="round"/>
<path d="M426.3 370.6C426.147 368.569 425.457 366.616 424.3 364.94C422.45 362.5 420.3 359.26 419.38 357.94" stroke="#263238" stroke-width="0.75" stroke-linecap="round" stroke-linejoin="round"/>
<path d="M417.84 376.84H446.53V391.67C446.53 392.33 446.268 392.964 445.801 393.431C445.334 393.898 444.7 394.16 444.04 394.16H420.33C419.669 394.16 419.036 393.898 418.569 393.431C418.102 392.964 417.84 392.33 417.84 391.67V376.84Z" fill="#263238" stroke="#263238" stroke-linecap="round" stroke-linejoin="round"/>
<path d="M80.2399 251.16C80.2399 251.16 80.2399 247.58 75.2399 242.58C70.2399 237.58 66.9999 234.72 66.9999 234.72C66.9999 234.72 64.4999 242.94 69.1399 247.94C72.5595 251.458 76.2656 254.686 80.2199 257.59L80.2399 251.16Z" fill="#00A7E3"/>
<path d="M73 273.47C73 273.47 73 269.9 68 264.9C63 259.9 59.76 257 59.76 257C59.76 257 57.26 265.21 61.9 270.22C65.323 273.751 69.036 276.989 73 279.9V273.47Z" fill="#00A7E3"/>
<path d="M79.93 257.24C79.93 257.24 80.3 253.69 85.81 249.24C91.32 244.79 94.81 242.3 94.81 242.3C94.81 242.3 96.43 250.73 91.28 255.22C87.5202 258.354 83.5064 261.171 79.28 263.64L79.93 257.24Z" fill="#00A7E3"/>
<path d="M71.1598 283.6C71.1598 283.6 71.9098 280.1 77.8398 276.26C83.7698 272.42 87.5298 270.26 87.5298 270.26C87.5298 270.26 88.2498 278.81 82.6598 282.73C78.5821 285.457 74.2838 287.838 69.8098 289.85L71.1598 283.6Z" fill="#00A7E3"/>
<path d="M72.81 312.33C72.81 312.33 72.81 308.76 77.81 303.75C82.81 298.74 86 295.89 86 295.89C86 295.89 88.5 304.11 83.85 309.11C80.4383 312.633 76.7351 315.861 72.78 318.76L72.81 312.33Z" fill="#00A7E3"/>
<path d="M72.7199 319.34C72.7199 319.34 73.2299 315.81 68.9899 310.14C64.7499 304.47 61.9899 301.19 61.9899 301.19C61.9899 301.19 58.3499 308.97 62.2299 314.59C65.114 318.558 68.3252 322.278 71.8299 325.71L72.7199 319.34Z" fill="#00A7E3"/>
<path d="M67.79 340.13C67.79 340.13 67.79 336.56 72.79 331.55C77.79 326.54 81 323.69 81 323.69C81 323.69 83.5 331.91 78.86 336.91C75.4404 340.428 71.7343 343.656 67.78 346.56L67.79 340.13Z" fill="#00A7E3"/>
<path d="M71.13 359C71.13 359 70.22 355.55 73.8 349.44C77.38 343.33 79.8 339.75 79.8 339.75C79.8 339.75 84.26 347 81 353.06C78.5846 357.326 75.8184 361.383 72.73 365.19L71.13 359Z" fill="#00A7E3"/>
<path d="M80.69 250.24C80.4409 253.963 79.9835 257.668 79.32 261.34C77.32 271.55 72.4 278.14 70.43 287.34C68.46 296.54 74.13 308.46 72.61 320.34C71.09 332.22 66.47 338.78 67.79 346.69C69.11 354.6 76.19 376.8 76.19 376.8" stroke="#263238" stroke-width="0.75" stroke-linecap="round" stroke-linejoin="round"/>
<path d="M79.8799 259.62L85.2699 255.48" stroke="#263238" stroke-width="0.75" stroke-linecap="round" stroke-linejoin="round"/>
<path d="M80.1299 254.85L77.8699 250.84" stroke="#263238" stroke-width="0.75" stroke-linecap="round" stroke-linejoin="round"/>
<path d="M70.73 287C70.73 287 75.24 283.61 79.88 280.23" stroke="#263238" stroke-width="0.75" stroke-linecap="round" stroke-linejoin="round"/>
<path d="M72.74 279.27C70.5533 275.146 67.9605 271.25 65 267.64" stroke="#263238" stroke-width="0.75" stroke-linecap="round" stroke-linejoin="round"/>
<path d="M73 317.41C75.5782 312.662 78.8322 308.313 82.66 304.5" stroke="#263238" stroke-width="0.75" stroke-linecap="round" stroke-linejoin="round"/>
<path d="M72.1 322.43C70.7337 319.207 69.1014 316.103 67.22 313.15C64.58 309.26 64.22 308.76 64.22 308.76" stroke="#263238" stroke-width="0.75" stroke-linecap="round" stroke-linejoin="round"/>
<path d="M67.7898 346.69C68.9344 343.852 70.2916 341.104 71.8498 338.47C73.4152 336.033 75.1778 333.729 77.1198 331.58" stroke="#263238" stroke-width="0.75" stroke-linecap="round" stroke-linejoin="round"/>
<path d="M72.7599 365.19C72.4981 362.48 72.9641 359.75 74.1099 357.28C75.9899 353.64 78.1099 348.88 78.9999 347" stroke="#263238" stroke-width="0.75" stroke-linecap="round" stroke-linejoin="round"/>
<path d="M47.48 298.89C47.48 298.89 47.1 296.65 49.69 292.97C52.28 289.29 53.99 287.15 53.99 287.15C53.99 287.15 56.45 292.03 54.08 295.67C52.3192 298.247 50.3456 300.672 48.18 302.92L47.48 298.89Z" fill="#00A7E3"/>
<path d="M54.46 312.1C54.46 312.1 54.07 309.86 56.67 306.18C59.27 302.5 60.97 300.35 60.97 300.35C60.97 300.35 63.43 305.24 61.06 308.88C59.2992 311.457 57.3256 313.882 55.16 316.13L54.46 312.1Z" fill="#00A7E3"/>
<path d="M48.3399 302.67C48.3399 302.67 47.7199 300.49 43.7899 298.3C39.8599 296.11 37.3899 294.92 37.3899 294.92C37.3899 294.92 37.2899 300.38 40.9999 302.64C43.7038 304.206 46.5336 305.544 49.4599 306.64L48.3399 302.67Z" fill="#00A7E3"/>
<path d="M56.7 318.25C56.7 318.25 55.85 316.14 51.7 314.37C47.55 312.6 45 311.68 45 311.68C45 311.68 45.48 317.13 49.41 318.98C52.263 320.247 55.2165 321.274 58.24 322.05L56.7 318.25Z" fill="#00A7E3"/>
<path d="M58.7899 336.44C58.7899 336.44 58.3999 334.2 54.7199 331.61C51.0399 329.02 48.7199 327.61 48.7199 327.61C48.7199 327.61 47.9999 333 51.4899 335.63C54.0179 337.465 56.6937 339.087 59.4899 340.48L58.7899 336.44Z" fill="#00A7E3"/>
<path d="M59.5998 340.83C59.5998 340.83 58.8998 338.67 60.9398 334.66C62.9798 330.65 64.3698 328.29 64.3698 328.29C64.3698 328.29 67.4998 332.77 65.6698 336.71C64.2967 339.506 62.691 342.182 60.8698 344.71L59.5998 340.83Z" fill="#00A7E3"/>
<path d="M65.8799 358.91C65.8799 358.91 66.1399 356.65 69.6699 353.85C73.1999 351.05 75.4299 349.48 75.4299 349.48C75.4299 349.48 76.4299 354.85 73.1199 357.68C70.7028 359.665 68.1238 361.445 65.4099 363L65.8799 358.91Z" fill="#00A7E3"/>
<path d="M64.9999 353.33C64.9999 353.33 64.6099 351.09 60.9299 348.5C57.2499 345.91 54.9299 344.5 54.9299 344.5C54.9299 344.5 54.2499 349.93 57.7099 352.56C60.2368 354.397 62.9128 356.019 65.7099 357.41L64.9999 353.33Z" fill="#00A7E3"/>
<path d="M64.8999 365.51C64.8999 365.51 65.0899 363.25 62.1899 359.8C59.2899 356.35 57.3999 354.38 57.3999 354.38C57.3999 354.38 55.3999 359.45 58.0499 362.88C60.0294 365.294 62.2069 367.538 64.5599 369.59L64.8999 365.51Z" fill="#00A7E3"/>
<path d="M47.0999 298.37C47.6655 300.675 48.3532 302.948 49.1599 305.18C51.5099 311.37 55.3299 314.96 57.5699 320.54C59.8099 326.12 57.5699 334.18 59.7799 341.45C61.9899 348.72 65.6299 352.35 65.6599 357.45C65.6899 362.55 63.6599 376.74 63.6599 376.74" stroke="#263238" stroke-width="0.75" stroke-linecap="round" stroke-linejoin="round"/>
<path d="M48.6298 304.16L44.7998 302.15" stroke="#263238" stroke-width="0.75" stroke-linecap="round" stroke-linejoin="round"/>
<path d="M47.96 301.2L48.94 298.44" stroke="#263238" stroke-width="0.75" stroke-linecap="round" stroke-linejoin="round"/>
<path d="M57.3399 320.3C57.3399 320.3 54.1399 318.67 50.8599 317.05" stroke="#263238" stroke-width="0.75" stroke-linecap="round" stroke-linejoin="round"/>
<path d="M55.1299 315.43C56.1542 312.712 57.4018 310.083 58.8599 307.57" stroke="#263238" stroke-width="0.75" stroke-linecap="round" stroke-linejoin="round"/>
<path d="M59.23 339.65C57.0934 336.969 54.5808 334.612 51.77 332.65" stroke="#263238" stroke-width="0.75" stroke-linecap="round" stroke-linejoin="round"/>
<path d="M60.3198 342.7C60.83 340.53 61.519 338.406 62.3798 336.35C63.6098 333.63 63.7898 333.27 63.7898 333.27" stroke="#263238" stroke-width="0.75" stroke-linecap="round" stroke-linejoin="round"/>
<path d="M65.49 361.32C66.7337 359.777 68.1125 358.348 69.61 357.05C70.561 356.346 71.4539 355.567 72.28 354.72" stroke="#263238" stroke-width="0.75" stroke-linecap="round" stroke-linejoin="round"/>
<path d="M65.66 357.45C64.6365 355.794 63.4864 354.219 62.22 352.74C60.9919 351.379 59.6541 350.122 58.22 348.98" stroke="#263238" stroke-width="0.75" stroke-linecap="round" stroke-linejoin="round"/>
<path d="M64.5599 369.59C64.4252 367.86 63.8352 366.198 62.8499 364.77C61.2799 362.7 59.4199 359.94 58.6699 358.86" stroke="#263238" stroke-width="0.75" stroke-linecap="round" stroke-linejoin="round"/>
<path d="M55.8398 376.84H84.5298V391.67C84.5299 392 84.4642 392.328 84.3366 392.632C84.2089 392.937 84.0219 393.213 83.7865 393.445C83.551 393.677 83.2717 393.859 82.965 393.982C82.6583 394.105 82.3302 394.165 81.9998 394.16H58.3298C57.6695 394.16 57.0361 393.898 56.5691 393.431C56.1022 392.964 55.8398 392.33 55.8398 391.67V376.84V376.84Z" fill="#263238" stroke="#263238" stroke-linecap="round" stroke-linejoin="round"/>
<path d="M329.14 191C325.64 195.358 323.263 200.509 322.22 206C320.38 215.33 315.85 232.86 316.42 238.94C316.99 245.02 318.42 248.41 323.91 249.4C329.4 250.39 332.53 245.58 333.67 241.48C334.393 238.782 334.957 236.044 335.36 233.28L336.49 211C336.49 211 334.49 197.61 333.54 194.79C332.59 191.97 329.14 191 329.14 191Z" fill="#00A7E3" stroke="#263238" stroke-linecap="round" stroke-linejoin="round"/>
<path d="M402.68 186.54C402.68 186.54 404.68 186.1 406.58 193.04C408.48 199.98 410.77 209.94 414.52 222.22C418.27 234.5 419 238.55 418.71 241.29C418.42 244.03 416.26 247.07 408.71 247.07C401.16 247.07 397.71 244.18 395.71 237.68C393.71 231.18 394 211.1 393.86 208.5C393.72 205.9 400.36 185.24 402.68 186.54Z" fill="#00A7E3" stroke="#263238" stroke-linecap="round" stroke-linejoin="round"/>
<path d="M351.1 402.24C351.1 402.24 346.19 407.44 343.3 410.77C340.41 414.1 339.4 416.11 344.16 418.13C348.92 420.15 356.3 417.13 358.47 413.8C360.64 410.47 365.26 406.72 365.26 406.72C365.26 406.72 367.71 403.98 364.53 400.08C361.35 396.18 352.54 400.65 351.1 402.24Z" fill="white" stroke="#263238" stroke-linecap="round" stroke-linejoin="round"/>
<path d="M380.57 406.58C380.57 406.58 385.48 407.3 388.08 409.58C390.68 411.86 399.79 416.95 405.85 414.49C411.91 412.03 408.02 407.99 404.7 405.1C402.835 403.446 400.801 401.995 398.63 400.77C398.63 400.77 388.95 400.05 384.63 402.21C380.31 404.37 380.57 406.58 380.57 406.58Z" fill="white" stroke="#263238" stroke-linecap="round" stroke-linejoin="round"/>
<path d="M345.46 339.39C345.46 339.39 347.78 356.73 346.62 361.93C345.46 367.13 342.14 370.17 344.62 375.23C346.456 379.142 347.799 383.267 348.62 387.51C348.91 389.24 347.32 389.67 348.62 391.51C349.568 392.696 350.345 394.009 350.93 395.41C350.93 395.85 349.2 398.3 349.2 398.88C349.2 399.46 350.07 403.07 350.07 403.07C350.07 403.07 354.69 402.07 358.01 403.36C360.415 404.396 362.693 405.704 364.8 407.26C364.8 407.26 367.8 406.1 368.85 404.37C369.416 403.463 369.759 402.435 369.85 401.37C369.99 400.79 371.44 397.75 371.3 395.44C371.16 393.13 369.56 388.22 369.56 385.33C369.56 382.44 371.73 379.26 371.73 374.64C371.73 370.02 369.56 340.4 369.56 340.4L371.56 339.67C371.56 339.67 374.74 357.3 374.74 365.54C374.74 373.78 372.29 384.03 373.88 386.05C375.47 388.07 377.34 389.81 377.34 390.24C377.34 390.67 375.46 393.85 375.9 395.44C376.586 397.529 377.164 399.652 377.63 401.8C377.63 402.67 379.22 405.99 380.52 406.57C381.82 407.15 382.52 405.84 390.2 404.26C397.88 402.68 402.2 403.1 401.47 400.79C400.74 398.48 400.03 395.44 399.16 394.86C398.29 394.28 399.45 393.86 399.16 391.69C398.87 389.52 397.28 387.21 395.84 383.74C394.4 380.27 396.41 376.52 396.99 372.9C397.57 369.28 396.7 363.9 395.26 358.02C393.82 352.14 395.11 337.65 395.11 337.65L395.84 332.02C395.84 332.02 373.73 334.02 360.15 333.89L345.56 333.75C345.56 333.75 344.6 334.77 345.46 339.39Z" fill="#263238" stroke="#263238" stroke-linecap="round" stroke-linejoin="round"/>
<path d="M401.52 279C401.52 279 403.52 305.3 406.14 319C407.648 326.732 408.604 334.562 409 342.43H398.49C398.05 342.43 399.21 293.74 399.49 289.43C399.871 285.902 400.55 282.413 401.52 279V279Z" fill="#00A7E3" stroke="#263238" stroke-linecap="round" stroke-linejoin="round"/>
<path d="M358 172C358 172 345.72 180.23 339.37 183.12C333.02 186.01 329.54 189.77 329.11 191.12C328.68 192.47 336.04 213.22 336.04 213.22C336.04 213.22 335.61 281.85 335.61 293.41C335.61 304.97 332 339.78 332.43 339.78C332.86 339.78 344.43 347.3 360.31 347.73C376.19 348.16 381.31 345.85 386.31 345.85C391.31 345.85 401.31 345.85 401.48 344.41C401.65 342.97 401.77 311.03 401.91 296.15C402.05 281.27 402.2 270.72 401.91 268.27C401.62 265.82 397.58 212.93 397.58 212.93C397.58 212.93 400.58 204.12 402.35 197.04C404.12 189.96 404.08 189.09 401.91 185.92C399.74 182.75 383.46 174.11 380.57 173C377.019 171.757 373.321 170.981 369.57 170.69C366.85 170.5 358 172 358 172Z" fill="#00A7E3" stroke="#263238" stroke-linecap="round" stroke-linejoin="round"/>
<path d="M330.87 230.75C330.87 230.75 332.75 235.08 335.06 236.96C337.37 238.84 342.72 239.71 343.87 242.6C345.02 245.49 343.87 247.65 342.57 251.12C341.27 254.59 342 260.37 337.23 261.12C332.46 261.87 331.02 260.12 327.11 257.36C323.2 254.6 320.76 254.18 318.45 249.99C316.14 245.8 315.45 239.99 317.45 236.85" fill="#00A7E3"/>
<path d="M330.87 230.75C330.87 230.75 332.75 235.08 335.06 236.96C337.37 238.84 342.72 239.71 343.87 242.6C345.02 245.49 343.87 247.65 342.57 251.12C341.27 254.59 342 260.37 337.23 261.12C332.46 261.87 331.02 260.12 327.11 257.36C323.2 254.6 320.76 254.18 318.45 249.99C316.14 245.8 315.45 239.99 317.45 236.85" stroke="#263238" stroke-linecap="round" stroke-linejoin="round"/>
<path d="M357.46 166.31L357 178.45C357 178.45 355.85 180.18 362.78 180.61C367.235 180.844 371.701 180.508 376.07 179.61L374.92 166.47C374.92 166.47 367.69 169.47 363.5 168.06C361.535 167.321 359.516 166.736 357.46 166.31V166.31Z" fill="white" stroke="#263238" stroke-linecap="round" stroke-linejoin="round"/>
<path d="M354.71 163.28C354.71 163.28 353.71 177.28 352.98 181.48C352.25 185.68 352.4 188.27 353.98 189.28C355.56 190.29 364.81 193.91 369.58 193.62C374.35 193.33 381.58 188.99 382.15 187.69C382.72 186.39 377.83 166 377.83 166L377.1 166.87C377.1 166.87 378.4 177.56 377.97 177.87C377.54 178.18 360.78 177 357.74 176.87C354.7 176.74 355.58 176.58 355.58 176.58L355.43 164.3L354.71 163.28Z" fill="white" stroke="#263238" stroke-linecap="round" stroke-linejoin="round"/>
<path d="M354.25 179.94C354.25 179.94 370.04 182.27 379.51 180.44" stroke="#263238" stroke-width="0.5" stroke-miterlimit="10"/>
<path d="M353.59 183.6C353.59 183.6 364.59 188.25 379.51 184.09" stroke="#263238" stroke-width="0.5" stroke-miterlimit="10"/>
<path d="M354.75 187.92C354.75 187.92 365.22 193.57 379.51 187.58" stroke="#263238" stroke-width="0.5" stroke-miterlimit="10"/>
<path d="M380.29 148.54C380.65 144.1 380.95 139.54 379.85 137.27C378.12 133.66 372.91 129.47 365.4 129.76C357.89 130.05 351.53 132.94 351.68 142.18C351.68 142.18 352 144.93 352.37 148.3C351.682 149.772 351.442 151.413 351.68 153.02C351.913 154.562 352.454 156.041 353.27 157.37C353.34 158.23 353.39 158.97 353.41 159.52C353.55 163.42 356.15 168.04 358.47 169.63C360.79 171.22 365.11 173.68 367.86 173.68C370.61 173.68 375.51 171.08 377.86 167.32C379.68 164.32 379.86 162.32 379.86 158.79H380C380.414 156.936 380.658 155.048 380.73 153.15C380.789 151.601 380.641 150.05 380.29 148.54Z" fill="white" stroke="#263238" stroke-linecap="round" stroke-linejoin="round"/>
<path d="M353 149.41C353 149.41 353.43 153.02 354.15 152.87C354.87 152.72 355.74 147.53 355.74 147.53L353 149.41Z" fill="#263238" stroke="#263238" stroke-linecap="round" stroke-linejoin="round"/>
<path d="M377.54 149C377.54 149 377.54 153.05 378.54 153.63C379.54 154.21 380.27 150.16 380.27 150.16C379.451 149.587 378.521 149.192 377.54 149V149Z" fill="#263238" stroke="#263238" stroke-linecap="round" stroke-linejoin="round"/>
<path d="M379.85 137.27C378.12 133.66 372.91 129.47 365.4 129.76C357.89 130.05 351.53 132.94 351.68 142.18C351.68 142.18 352 144.93 352.37 148.3C351.915 149.277 351.653 150.333 351.6 151.41C354.41 149.16 359.67 145.94 366.27 146.52C371.406 147.105 376.343 148.846 380.71 151.61C380.664 150.576 380.524 149.548 380.29 148.54C380.65 144.1 381 139.57 379.85 137.27Z" fill="#00A7E3" stroke="#263238" stroke-linecap="round" stroke-linejoin="round"/>
<path d="M364.39 152L363.52 157.2C363.52 157.2 361.93 157.34 362.52 158.35C363.11 159.36 366.13 160.52 367.58 160.09C369.03 159.66 370.47 158.21 370.32 157.63C370.275 157.457 370.185 157.298 370.058 157.172C369.932 157.045 369.773 156.955 369.6 156.91L367.72 151.56" stroke="#263238" stroke-linecap="round" stroke-linejoin="round"/>
<path d="M362.8 162.7C365.574 163.299 368.454 163.199 371.18 162.41" stroke="#263238" stroke-linecap="round" stroke-linejoin="round"/>
<path d="M361.21 151.79C361.21 152.55 360.82 153.16 360.34 153.16C359.86 153.16 359.48 152.55 359.48 151.79C359.48 151.03 359.87 150.42 360.34 150.42C360.81 150.42 361.21 151 361.21 151.79Z" fill="#263238"/>
<path d="M372.19 151.72C372.19 152.48 371.8 153.09 371.33 153.09C370.86 153.09 370.46 152.48 370.46 151.72C370.46 150.96 370.85 150.35 371.33 150.35C371.81 150.35 372.19 151 372.19 151.72Z" fill="#263238"/>
<path d="M357.89 149.7C357.89 149.7 358.89 147.24 362.08 148.11" stroke="#263238" stroke-linecap="round" stroke-linejoin="round"/>
<path d="M368.58 148.25C368.58 148.25 371.58 146.08 373.78 149.84" stroke="#263238" stroke-linecap="round" stroke-linejoin="round"/>
<path d="M341.27 248.81C341.27 248.81 350.09 250.81 352.11 250.4C354.758 249.906 357.182 248.59 359.04 246.64C361.65 244.04 363.81 241.87 363.81 244.04C363.819 244.897 363.658 245.746 363.335 246.539C363.012 247.333 362.535 248.054 361.93 248.66C360.93 249.82 359.04 251.12 358.61 253C358.18 254.88 358.76 256.32 361.07 257.19C363.38 258.06 370.6 259.35 370.6 261.19C370.6 263.03 370.02 267.41 367.42 268.85C364.82 270.29 358.47 269.28 358.47 269.28C358.47 269.28 363.67 272.17 362.66 272.9C361.65 273.63 358.61 272.61 357.17 271.31C355.73 270.01 355.17 269.86 350.95 266.83C346.73 263.8 343.15 260.18 341.13 259.03C340.036 258.518 339.024 257.843 338.13 257.03C336.97 256.03 336.54 254.03 337.4 251.69C337.693 250.997 338.127 250.372 338.675 249.856C339.222 249.34 339.871 248.943 340.58 248.69L341.27 248.81Z" fill="white" stroke="#263238" stroke-linecap="round" stroke-linejoin="round"/>
<path d="M409.9 232.34C409.9 232.34 399.5 234.34 398.49 235.08C397.48 235.82 398.49 238.84 398.49 238.84C398.49 238.84 389.67 243.03 386.35 245.34C383.03 247.65 386.06 252.28 386.21 252.85C386.21 252.85 388.81 261.38 393.14 264.27C397.47 267.16 401.95 266.14 406.29 261.52C410.63 256.9 413.37 250.52 415.39 248.37C417.41 246.22 419.58 244.18 418.86 239.37C418.14 234.56 414.38 234.02 414.38 234.02" fill="#00A7E3"/>
<path d="M409.9 232.34C409.9 232.34 399.5 234.34 398.49 235.08C397.48 235.82 398.49 238.84 398.49 238.84C398.49 238.84 389.67 243.03 386.35 245.34C383.03 247.65 386.06 252.28 386.21 252.85C386.21 252.85 388.81 261.38 393.14 264.27C397.47 267.16 401.95 266.14 406.29 261.52C410.63 256.9 413.37 250.52 415.39 248.37C417.41 246.22 419.58 244.18 418.86 239.37C418.14 234.56 414.38 234.02 414.38 234.02" stroke="#263238" stroke-linecap="round" stroke-linejoin="round"/>
<path d="M388.66 251.41C388.66 251.41 382.02 253.14 380.14 253.29C378.26 253.44 377.97 253.72 376.82 252.85C375.67 251.98 370.31 248.85 367.82 245.92C365.33 242.99 363.48 242.45 363.77 244.04C364.06 245.63 363.48 246.78 365.22 247.94C366.96 249.1 368.68 252.28 368.68 253.58C368.68 254.88 368.54 255.31 364.93 256.58C361.32 257.85 353.08 259.47 353.93 260.48C354.78 261.49 356.53 261.78 358.41 261.64C360.29 261.5 368.09 260.34 368.66 260.77C368.848 260.963 368.989 261.197 369.071 261.453C369.153 261.71 369.174 261.982 369.132 262.248C369.091 262.514 368.987 262.767 368.831 262.986C368.674 263.205 368.468 263.385 368.23 263.51C366.93 264.38 362.31 264.38 359.56 264.67C356.81 264.96 356.67 265.67 357.83 266.26C359.692 266.955 361.673 267.278 363.66 267.21C365.97 267.21 368.66 266.98 367.51 267.7C366.36 268.42 364.76 268.57 361.87 269C358.98 269.43 357.97 268.14 358.41 269.29C358.85 270.44 362.31 270.45 366.64 270.29C370.582 270.089 374.409 268.899 377.77 266.83C380.66 265.09 391.2 262.49 391.93 261.92C392.66 261.35 393.8 258.01 393.08 253.97C392.36 249.93 388.66 251.41 388.66 251.41Z" fill="white" stroke="#263238" stroke-linecap="round" stroke-linejoin="round"/>
<path d="M400.08 234.5C402.895 232.17 405.945 230.14 409.18 228.44" stroke="#263238" stroke-linecap="round" stroke-linejoin="round"/>
<path d="M360.2 261.72C360.2 261.72 368.42 260.78 369.25 260.66C370.08 260.54 371.6 261.48 370.89 262.54C370.18 263.6 369.83 263.36 366.89 263.95C363.972 264.393 361.021 264.591 358.07 264.54" fill="white"/>
<path d="M360.2 261.72C360.2 261.72 368.42 260.78 369.25 260.66C370.08 260.54 371.6 261.48 370.89 262.54C370.18 263.6 369.83 263.36 366.89 263.95C363.972 264.393 361.021 264.591 358.07 264.54" stroke="#263238" stroke-linecap="round" stroke-linejoin="round"/>
<path d="M361.14 267.36C361.14 267.36 370.3 266.77 370.07 267.48C369.84 268.19 369.25 269.12 365.96 269.36C362.67 269.6 358.96 269.83 355.85 268.3" fill="white"/>
<path d="M361.14 267.36C361.14 267.36 370.3 266.77 370.07 267.48C369.84 268.19 369.25 269.12 365.96 269.36C362.67 269.6 358.96 269.83 355.85 268.3" stroke="#263238" stroke-linecap="round" stroke-linejoin="round"/>
<path d="M269.52 395.12C269.52 395.12 271.08 396.67 264.86 400.47C258.64 404.27 253.45 406 253.45 408.25C253.45 410.5 260.36 412.74 267.45 411.01C274.54 409.28 277.45 408.77 281.45 408.08C285.45 407.39 286.64 403.93 286.64 399.08C286.64 394.23 276.1 393.08 274.89 392.86C273.68 392.64 270.39 393.22 269.52 395.12Z" fill="white" stroke="#263238" stroke-linecap="round" stroke-linejoin="round"/>
<path d="M285.07 399.09C282.452 403.012 279.248 406.51 275.57 409.46C270.21 413.46 269.52 415.33 272.29 416.37C275.06 417.41 283 417.75 288.36 415.68C293.72 413.61 296.31 410.5 297.86 409.11C299.41 407.72 300.28 408.59 300.28 403.06C300.28 397.53 294.4 395.63 289.57 395.98C284.74 396.33 285.07 399.09 285.07 399.09Z" fill="white" stroke="#263238" stroke-linecap="round" stroke-linejoin="round"/>
<path d="M264 286.43C264 286.43 265.56 317.88 266.08 327.04C266.6 336.2 270.4 370.58 271.08 378.7C271.76 386.82 271.77 389.24 271.77 389.24C271.77 389.24 268.66 391.49 268.66 392.01C268.66 392.53 268.31 397.36 268.31 397.36C270.605 398.624 273.042 399.611 275.57 400.3C278.347 400.926 281.207 401.102 284.04 400.82C284.04 400.82 289.74 402.72 294.58 404.1C299.42 405.48 301.32 404.79 301.32 404.79C301.32 404.79 302.7 397.88 303.04 395.63C303.38 393.38 309.26 369.54 309.26 358.63C309.26 347.72 307.88 342.73 305.81 336.34C303.74 329.95 308.57 307.13 310.3 298.84C311.292 294.216 312.043 289.543 312.55 284.84C312.55 284.84 297.69 292.48 264 286.43Z" fill="#263238" stroke="#263238" stroke-linecap="round" stroke-linejoin="round"/>
<path d="M283.35 297C283.35 297 282.48 320 282.48 328.79C282.48 337.58 284.73 348.32 285.76 358.69C286.79 369.06 286.11 385.99 284.9 388.93C283.69 391.87 282.83 392.93 283 395.15C283.17 397.37 283.35 400.5 283.35 400.5" stroke="white" stroke-linecap="round" stroke-linejoin="round"/>
<path d="M280.58 163.22C280.58 163.22 279.58 160.11 277.98 161.32C276.38 162.53 277.47 164.78 278.85 167.03C280.23 169.28 281.78 169.79 281.96 168.58C282.14 167.37 280.58 163.22 280.58 163.22Z" fill="white" stroke="#263238" stroke-linecap="round" stroke-linejoin="round"/>
<path d="M280.58 164.61L278.85 159.61C278.85 159.61 271.6 156.67 273.85 149.41C276.1 142.15 293.38 135.59 298.04 135.59C302.7 135.59 311.69 141.81 313.25 149.07C314.81 156.33 309.62 162.89 309.62 162.89C309.62 162.89 307.37 169.28 305.62 168.94C303.87 168.6 304.92 163.58 302.68 159.61C300.44 155.64 299.05 153.61 296.63 154.61C294.21 155.61 284.19 158.61 283.33 159.96C282.47 161.31 280.93 165.47 280.58 164.61Z" fill="#263238" stroke="#263238" stroke-linecap="round" stroke-linejoin="round"/>
<path d="M315.66 235.8L316.52 240.29L305.81 256.88L308.23 260.68C313.311 257.292 317.953 253.288 322.05 248.76C328.96 241.16 329.65 240.12 329.65 237.01C329.65 233.9 327.24 228.54 327.24 228.54C327.24 228.54 322.4 235.8 315.66 235.8Z" fill="white" stroke="#263238" stroke-linecap="round" stroke-linejoin="round"/>
<path d="M257.08 225.78C257.08 225.78 253.62 234.07 254.32 236.66C255.02 239.25 266.93 254.46 266.93 254.46L269 248.76C269 248.76 264.51 239.43 264.51 236.32C264.51 233.21 266.07 227.16 266.07 227.16L257.08 225.78Z" stroke="#263238" stroke-linecap="round" stroke-linejoin="round"/>
<path d="M287.67 184.65C287.67 184.65 272.81 190.35 270.04 191.22C267.27 192.09 265.37 192.6 265.2 193.46C265.03 194.32 256.74 215.58 255.2 218.52C253.66 221.46 251.57 224.74 251.57 224.74C253.583 225.999 255.659 227.154 257.79 228.2C259.964 229.15 262.22 229.9 264.53 230.44L265.53 242.37L255.33 287.29C255.33 287.29 275.72 292.99 289.33 292.48C297.996 292.185 306.563 290.552 314.73 287.64C317.33 286.77 321.3 285.22 321.3 285.22L308.3 236.32L309.3 229.06L309.99 236.15C309.99 236.15 316.9 237.7 320.87 236.66C324.84 235.62 329.87 231.66 329.87 231.66L317.08 191.75L293.24 185.18L287.67 184.65Z" fill="#00A7E3" stroke="#263238" stroke-linecap="round" stroke-linejoin="round"/>
<path d="M304.46 188.22L293.37 185.17L287.67 184.65L282.54 186.65C282.44 189.37 282.31 194 282.31 199.55C282.31 208.55 283.31 216.49 285.94 214.93C288.57 213.37 300.94 196.62 303.04 191.93C303.608 190.732 304.082 189.491 304.46 188.22Z" fill="#00A7E3" stroke="#263238" stroke-linecap="round" stroke-linejoin="round"/>
<path d="M309.44 229.06C309.09 228.72 307.54 213.85 307.54 213.85" stroke="#263238" stroke-linecap="round" stroke-linejoin="round"/>
<path d="M264.51 230.44C264.51 230.44 263.3 224.57 263.65 222.32C264 220.07 266.41 206.77 266.41 206.77" stroke="#263238" stroke-linecap="round" stroke-linejoin="round"/>
<path d="M270.39 255.33C270.39 255.33 262.44 257.92 262.44 258.44C262.44 258.96 262.26 261.37 262.26 261.37L270.39 257.57V255.33Z" stroke="#263238" stroke-linecap="round" stroke-linejoin="round"/>
<path d="M291.47 256.54L291.12 258.78L308.4 263.27L309.26 261.55L291.47 256.54Z" stroke="#263238" stroke-linecap="round" stroke-linejoin="round"/>
<path d="M297.17 222.18C296.934 222.18 296.708 222.086 296.541 221.919C296.374 221.752 296.28 221.526 296.28 221.29C296.28 218.29 297.77 211.05 299.22 204.05C300.37 198.48 301.46 193.21 301.46 191.56C301.504 190.651 301.354 189.742 301.02 188.896C300.685 188.049 300.174 187.283 299.52 186.65C297.45 184.73 293.77 183.95 288.59 184.33C277.78 185.13 276.99 209.33 276.98 209.56C276.975 209.793 276.879 210.014 276.712 210.177C276.546 210.339 276.323 210.43 276.09 210.43V210.43C275.973 210.426 275.858 210.399 275.752 210.351C275.645 210.303 275.549 210.234 275.469 210.148C275.389 210.063 275.327 209.963 275.286 209.853C275.245 209.744 275.226 209.627 275.23 209.51C275.23 208.45 276.08 183.51 288.49 182.51C294.19 182.1 298.32 183.03 300.76 185.31C301.591 186.111 302.245 187.077 302.677 188.147C303.11 189.217 303.312 190.367 303.27 191.52C303.27 193.35 302.22 198.46 301 204.37C299.63 210.96 298.09 218.43 298.09 221.25C298.096 221.373 298.076 221.495 298.032 221.61C297.987 221.725 297.92 221.829 297.834 221.917C297.747 222.004 297.644 222.072 297.529 222.118C297.415 222.163 297.293 222.184 297.17 222.18V222.18Z" fill="#263238" stroke="#263238" stroke-linecap="round" stroke-linejoin="round"/>
<path d="M285.76 179.3C285.76 179.3 285.76 184.3 285.59 185.3C285.42 186.3 285.59 190.66 285.59 196.54C285.59 202.42 286.59 206.38 288.01 205C289.43 203.62 298.55 191.35 299.07 188.93C299.375 187.57 299.549 186.184 299.59 184.79L300.28 177.87C300.28 177.87 289.57 180.98 285.07 179.6" fill="white"/>
<path d="M285.76 179.3C285.76 179.3 285.76 184.3 285.59 185.3C285.42 186.3 285.59 190.66 285.59 196.54C285.59 202.42 286.59 206.38 288.01 205C289.43 203.62 298.55 191.35 299.07 188.93C299.375 187.57 299.549 186.184 299.59 184.79L300.28 177.87C300.28 177.87 289.57 180.98 285.07 179.6" stroke="#263238" stroke-linecap="round" stroke-linejoin="round"/>
<path d="M303.56 168.93C304.46 174.933 304.691 181.016 304.25 187.07C303.56 197.61 302.31 202.55 299.25 204.07C296.19 205.59 300.14 207.31 304.8 207.48C309.46 207.65 316.38 206.96 317.59 193.14C318.8 179.32 308.78 170.33 307.91 168.6C307.687 168.198 307.354 167.869 306.95 167.651C306.546 167.433 306.087 167.335 305.629 167.37C305.171 167.405 304.733 167.57 304.366 167.847C303.999 168.123 303.72 168.499 303.56 168.93V168.93Z" fill="#263238" stroke="#263238" stroke-linecap="round" stroke-linejoin="round"/>
<path d="M269.87 221.66H269.8C269.679 221.653 269.56 221.621 269.452 221.566C269.344 221.51 269.248 221.434 269.171 221.34C269.094 221.246 269.037 221.137 269.005 221.02C268.972 220.903 268.963 220.78 268.98 220.66C268.98 220.17 269.98 208.6 276.09 208.6C282.2 208.6 282.34 219.73 282.34 220.21C282.34 220.446 282.246 220.673 282.079 220.839C281.913 221.006 281.686 221.1 281.45 221.1V221.1C281.214 221.1 280.988 221.006 280.821 220.839C280.654 220.673 280.56 220.446 280.56 220.21C280.56 220.11 280.43 210.39 276.1 210.39C272.38 210.39 270.99 217.9 270.77 220.8C270.76 221.032 270.66 221.251 270.493 221.411C270.325 221.571 270.102 221.66 269.87 221.66Z" fill="#263238"/>
<path d="M269.87 220.08C269.87 220.08 269.87 228.72 270.21 230.44C270.55 232.16 274.88 235.8 280.06 238.05" stroke="#263238" stroke-width="2" stroke-linecap="round" stroke-linejoin="round"/>
<path d="M281.1 219C281.1 219 281.44 227.64 279.72 231.44C278 235.24 272.81 236.8 270.56 237.66" stroke="#263238" stroke-width="2" stroke-linecap="round" stroke-linejoin="round"/>
<path d="M282.48 238.39C282.449 237.999 282.271 237.634 281.983 237.368C281.695 237.103 281.317 236.955 280.925 236.955C280.533 236.955 280.155 237.103 279.867 237.368C279.579 237.634 279.401 237.999 279.37 238.39C279.353 238.605 279.38 238.821 279.45 239.024C279.521 239.228 279.633 239.415 279.779 239.573C279.925 239.731 280.102 239.857 280.299 239.944C280.497 240.03 280.71 240.075 280.925 240.075C281.14 240.075 281.353 240.03 281.551 239.944C281.748 239.857 281.925 239.731 282.071 239.573C282.217 239.415 282.329 239.228 282.399 239.024C282.47 238.821 282.497 238.605 282.48 238.39V238.39Z" fill="white" stroke="#263238" stroke-linecap="round" stroke-linejoin="round"/>
<path d="M271.77 238.05C271.772 237.741 271.682 237.438 271.512 237.181C271.342 236.923 271.099 236.721 270.814 236.602C270.529 236.482 270.215 236.45 269.912 236.509C269.609 236.568 269.33 236.716 269.111 236.933C268.891 237.151 268.742 237.429 268.681 237.732C268.62 238.035 268.65 238.349 268.768 238.635C268.886 238.92 269.086 239.165 269.342 239.336C269.599 239.508 269.901 239.6 270.21 239.6C270.622 239.6 271.017 239.437 271.31 239.147C271.602 238.856 271.767 238.462 271.77 238.05V238.05Z" fill="white" stroke="#263238" stroke-linecap="round" stroke-linejoin="round"/>
<path d="M302.35 224.57C302.352 223.509 302.039 222.472 301.451 221.589C300.863 220.706 300.026 220.017 299.046 219.61C298.066 219.203 296.988 219.096 295.947 219.303C294.906 219.509 293.95 220.02 293.2 220.77C292.45 221.52 291.939 222.476 291.733 223.517C291.526 224.558 291.633 225.636 292.04 226.616C292.447 227.596 293.136 228.433 294.018 229.021C294.901 229.609 295.939 229.922 297 229.92C298.418 229.918 299.777 229.353 300.78 228.35C301.783 227.348 302.347 225.988 302.35 224.57Z" fill="white" stroke="#263238" stroke-linecap="round" stroke-linejoin="round"/>
<path d="M299.93 224.57C299.93 223.988 299.757 223.419 299.434 222.936C299.11 222.452 298.651 222.075 298.113 221.853C297.575 221.631 296.983 221.573 296.413 221.687C295.842 221.802 295.318 222.083 294.908 222.495C294.497 222.907 294.218 223.432 294.105 224.003C293.993 224.574 294.053 225.165 294.277 225.702C294.501 226.239 294.879 226.698 295.364 227.02C295.849 227.341 296.418 227.512 297 227.51C297.778 227.507 298.523 227.197 299.072 226.645C299.622 226.094 299.93 225.348 299.93 224.57V224.57Z" fill="white" stroke="#263238" stroke-linecap="round" stroke-linejoin="round"/>
<path d="M299.93 151.13C299.93 151.13 284.9 157 283 158C282.182 158.494 281.314 158.9 280.41 159.21C280.41 159.21 281.27 172.34 281.62 175.8C281.97 179.26 287.49 182.54 292.33 182.37C297.17 182.2 301.14 179.6 302.01 178.05C302.88 176.5 305.29 171.83 305.29 171.83C305.29 171.83 310.99 170.83 311.29 165.78C311.59 160.73 309.91 161.78 308.01 162.84C306.11 163.9 305.07 164.57 305.07 164.57C305.44 162.737 305.131 160.832 304.2 159.21C302.7 156.66 300.28 153.55 299.93 151.13Z" fill="white" stroke="#263238" stroke-linecap="round" stroke-linejoin="round"/>
<path d="M287.67 167.2C287.67 167.2 289.05 169.27 290.26 169.1" stroke="#263238" stroke-linecap="round" stroke-linejoin="round"/>
<path d="M287.15 170.31C287.15 170.31 290.08 173.08 295.15 170.83" stroke="#263238" stroke-linecap="round" stroke-linejoin="round"/>
<path d="M294.58 163.05C294.58 163.05 298.12 161.5 300.11 164.26" stroke="#263238" stroke-width="1.5" stroke-linecap="round" stroke-linejoin="round"/>
<path d="M287.67 162.71C287.67 162.71 284.9 160.98 282.83 162.36" stroke="#263238" stroke-width="1.5" stroke-linecap="round" stroke-linejoin="round"/>
<path d="M289.7 162.06C289.702 163.026 289.417 163.971 288.882 164.775C288.346 165.579 287.584 166.206 286.692 166.577C285.8 166.947 284.818 167.045 283.87 166.857C282.923 166.669 282.052 166.204 281.369 165.521C280.686 164.838 280.221 163.967 280.033 163.02C279.845 162.072 279.943 161.09 280.313 160.198C280.684 159.306 281.311 158.544 282.115 158.008C282.919 157.473 283.864 157.188 284.83 157.19C286.121 157.193 287.358 157.707 288.271 158.62C289.183 159.532 289.697 160.769 289.7 162.06Z" stroke="#263238" stroke-linecap="round" stroke-linejoin="round"/>
<path d="M301.85 163.43C301.852 164.396 301.568 165.34 301.033 166.144C300.498 166.948 299.736 167.575 298.845 167.946C297.953 168.317 296.971 168.415 296.024 168.228C295.077 168.04 294.206 167.576 293.523 166.894C292.839 166.212 292.374 165.343 292.185 164.396C291.995 163.449 292.092 162.467 292.461 161.575C292.83 160.683 293.455 159.92 294.258 159.383C295.061 158.847 296.004 158.56 296.97 158.56C298.262 158.563 299.5 159.076 300.414 159.989C301.329 160.901 301.845 162.138 301.85 163.43V163.43Z" stroke="#263238" stroke-linecap="round" stroke-linejoin="round"/>
<path d="M289.7 162.06C290.049 161.942 290.423 161.919 290.784 161.995C291.144 162.071 291.478 162.242 291.75 162.49" stroke="#263238" stroke-linecap="round" stroke-linejoin="round"/>
<path d="M302.02 164.2L306.81 163.52" stroke="#263238" stroke-linecap="round" stroke-linejoin="round"/>
<path d="M98.8599 396.38C97.5353 399.193 95.9055 401.853 93.9999 404.31C91.1099 407.86 90.3799 410.39 93.5199 412.59C96.6599 414.79 102.38 414.45 105.26 410.9C108.14 407.35 112.78 397.56 112.78 397.56C112.78 397.56 102.66 394.52 98.8599 396.38Z" fill="white" stroke="#263238" stroke-linecap="round" stroke-linejoin="round"/>
<path d="M134.08 398.57C134.08 398.57 139.08 405.16 142.08 408.57C145.08 411.98 150.75 413.63 153.78 413.46C156.81 413.29 161.16 412.28 158.22 406.88C155.28 401.48 149.14 396.24 149.14 396.24C149.14 396.24 142.72 396.24 138.31 395.73C133.9 395.22 133.86 397.56 134.08 398.57Z" fill="white" stroke="#263238" stroke-linecap="round" stroke-linejoin="round"/>
<path d="M101.62 274.45C101.62 274.45 99.6198 297.45 100.3 313.63C100.98 329.81 97.9998 362.1 96.9998 370C95.9998 377.9 97.9098 390.94 97.9998 393.81C98.0898 396.68 98.1898 398.21 98.1898 398.21C98.1898 398.21 99.6698 397.21 105.12 398.21C107.58 398.736 110.078 399.07 112.59 399.21C114.838 395.407 116.698 391.386 118.14 387.21C119.77 381.81 118.85 376.21 118.72 373.36C118.59 370.51 118.12 367.45 118.44 366.94C118.76 366.43 125.44 318.14 125.8 307.5C126.209 300.287 127.28 293.127 129 286.11C129 286.11 132.19 300.97 132.44 306.71C132.69 312.45 131.87 359.23 132.28 368.71C132.69 378.19 131.96 380.71 130.88 383.07C129.8 385.43 130.19 386.61 130.95 388.47C131.71 390.33 134.1 398.6 134.1 398.6C134.1 398.6 146.29 399.28 147.94 398.43C149.59 397.58 150.23 396.75 150.2 396.24C150.17 395.73 156.07 383.57 155.51 378.51C154.95 373.45 154.31 374.29 153.74 365.17C153.17 356.05 156.9 279.17 156.89 275.17C156.88 271.17 156.21 278.88 131.35 274.17C106.49 269.46 102.33 271.24 101.62 274.45Z" fill="#00A7E3" stroke="#263238" stroke-linecap="round" stroke-linejoin="round"/>
<path d="M134.8 392C134.8 392 142.61 385.24 149.12 383.55Z" fill="white"/>
<path d="M134.8 392C134.8 392 142.61 385.24 149.12 383.55" stroke="#263238" stroke-linecap="round" stroke-linejoin="round"/>
<path d="M102.91 388.78C102.91 388.78 112.67 384.05 115.49 382.87Z" fill="white"/>
<path d="M102.91 388.78C102.91 388.78 112.67 384.05 115.49 382.87" stroke="#263238" stroke-linecap="round" stroke-linejoin="round"/>
<path d="M119.29 149.49C119.29 149.49 116.67 143.58 114.73 145.61C112.79 147.64 114.26 150.33 116.93 153.54C119.6 156.75 121.71 154.72 121.15 153.37C120.59 152.02 119.29 149.49 119.29 149.49Z" fill="white" stroke="#263238" stroke-linecap="round" stroke-linejoin="round"/>
<path d="M144.65 146.28C144.65 146.28 147.27 140.54 149.41 143.28C151.55 146.02 146.95 152.74 145.82 153.92C144.69 155.1 143.96 146.15 143.96 146.15L144.65 146.28Z" fill="white" stroke="#263238" stroke-linecap="round" stroke-linejoin="round"/>
<path d="M87.7699 220.25C87.7699 220.25 87.0399 230.72 86.1499 233.42C84.333 239.783 83.4835 246.384 83.6299 253C83.9799 260.93 87.0899 278.16 87.1499 283.39C87.2099 288.62 85.5799 289.81 87.3299 291.16C89.0799 292.51 92.7999 296.57 94.1499 296.57C95.4999 296.57 97.5599 297.24 97.5099 296.23C97.4599 295.22 96.7999 295.38 96.2299 294.03C95.5022 292.062 94.9076 290.048 94.4499 288C94.8606 286.509 95.3581 285.043 95.9399 283.61C95.9399 283.61 97.1399 287.83 97.3699 289.19C97.5999 290.55 99.4799 291.04 99.3699 288.51C99.2599 285.98 99.2099 284.96 99.0899 282.26C98.9699 279.56 96.8399 277.2 95.9399 275.84C95.0399 274.48 94.3299 273.65 94.2999 273.14C94.2699 272.63 97.2099 254.74 97.2999 248.49C97.3899 242.24 97.4799 237.17 97.9299 235.99C98.3799 234.81 100.62 224.17 100.62 224.17L87.7699 220.25Z" fill="white" stroke="#263238" stroke-linecap="round" stroke-linejoin="round"/>
<path d="M171.29 220.75C171.29 220.75 172.01 231.28 172.91 234.06C174.705 240.506 175.551 247.18 175.42 253.87C175.07 261.78 171.94 278.73 171.88 283.96C171.82 289.19 173.46 290.51 171.71 291.71C169.96 292.91 166.23 296.63 164.88 296.52C163.53 296.41 161.48 296.89 161.52 295.88C161.56 294.87 162.23 295.1 162.8 293.8C163.539 291.872 164.137 289.894 164.59 287.88C164.176 286.343 163.675 284.83 163.09 283.35C163.09 283.35 161.89 287.47 161.66 288.8C161.43 290.13 159.56 290.47 159.66 287.95C159.76 285.43 159.81 284.42 159.93 281.73C160.05 279.04 162.18 276.86 163.09 275.59C164 274.32 164.7 273.53 164.73 273.03C164.76 272.53 161.82 254.37 161.73 248.11C161.64 241.85 161.56 236.78 161.1 235.56C160.64 234.34 158.41 223.5 158.41 223.5L171.29 220.75Z" fill="white" stroke="#263238" stroke-linecap="round" stroke-linejoin="round"/>
<path d="M124.7 168.91C124.7 168.91 115.1 173.47 109.3 176C103.5 178.53 96.2098 181.57 96.2998 182.76C96.3898 183.95 90.1198 207.58 88.1398 212.48C86.1598 217.38 84.3098 221.26 84.3098 221.26C84.3098 221.26 91.3998 226 95.9998 227C98.9644 227.628 101.974 228.022 105 228.18L99.5298 276.82C99.5298 276.82 110.53 281.21 127.76 281.38C138.451 281.459 149.137 280.895 159.76 279.69C159.76 279.69 161.38 239.69 161.21 235.78C161.092 233.638 161.169 231.489 161.44 229.36C164.064 229.932 166.792 229.819 169.36 229.03C171.618 228.19 173.831 227.232 175.99 226.16C175.99 226.16 167.6 192.72 166.22 188.16C164.84 183.6 165.48 182.93 164.28 182.42C163.08 181.91 149.82 176.17 145.49 173.64C141.16 171.11 139.49 171.1 135.7 169.92C131.91 168.74 126.65 167.22 124.7 168.91Z" fill="#00A7E3" stroke="#263238" stroke-linecap="round" stroke-linejoin="round"/>
<path d="M161.46 229.36L159.32 199.37" stroke="#263238" stroke-linecap="round" stroke-linejoin="round"/>
<path d="M105.4 245.07L124.13 244.56C124.13 244.56 123.3 268.04 122.73 270.56C122.16 273.08 118.36 274.78 113.45 274.61C108.54 274.44 105.57 272.08 105.01 270.9" stroke="#263238" stroke-linecap="round" stroke-linejoin="round"/>
<path d="M104.35 248.11L124.1 247.94" stroke="#263238" stroke-linecap="round" stroke-linejoin="round"/>
<path d="M156.35 274.62C154.51 275.13 150.12 275.13 149.16 272.43C148.2 269.73 148.83 245.58 148.83 245.58L158.47 245.91" stroke="#263238" stroke-linecap="round" stroke-linejoin="round"/>
<path d="M148.75 247.6L157.92 248.95" stroke="#263238" stroke-linecap="round" stroke-linejoin="round"/>
<path d="M105 228.18C105 228.18 105.68 205.05 105.41 198.97" stroke="#263238" stroke-linecap="round" stroke-linejoin="round"/>
<path d="M121.84 157.59C121.84 157.59 123.3 171.59 123.36 173.13C123.42 174.67 125.13 178.87 126.75 181.07C128.37 183.27 132.9 190.36 134.7 189C136.5 187.64 141.57 180.05 142.06 175.83C142.55 171.61 142.79 161.65 142.79 161.65C142.79 161.65 136.22 161.99 131.24 160.3C126.26 158.61 121.84 157.59 121.84 157.59Z" fill="white" stroke="#263238" stroke-linecap="round" stroke-linejoin="round"/>
<path d="M114.84 136.65L118.57 148.48C118.57 148.48 119.97 157.26 122.49 160.8C125.01 164.34 133.84 169.42 137.85 168.4C141.86 167.38 146.59 163.67 146.41 159.62C146.23 155.57 145.41 143.75 145.52 139.19C145.63 134.63 144.52 125.34 141.76 122.81C139 120.28 129.76 118.75 123.13 121.46C116.5 124.17 112 129.22 114.84 136.65Z" fill="#263238" stroke="#263238" stroke-linecap="round" stroke-linejoin="round"/>
<path d="M118.78 149.49C118.78 149.49 118.45 149.66 119.32 146.28C120.19 142.9 122.81 141.21 123.07 139.53C123.33 137.85 119.77 137.33 120.16 134.8C120.55 132.27 124.03 130.41 131.42 129.56C138.81 128.71 143.73 133.11 143.49 135.3C143.25 137.49 142.59 137.84 143.67 139.36C144.75 140.88 145.21 143.75 145.29 145.44C145.37 147.13 146.29 153.2 144.69 155.06C143.09 156.92 141.89 156.58 140.3 155.06C138.71 153.54 138.12 151.52 134.58 151.52C131.04 151.52 129.91 152.87 129.29 154.22C128.67 155.57 128.07 157.22 126.05 157.22C124.03 157.22 122.59 155.36 121.15 153.33C120.272 152.106 119.481 150.823 118.78 149.49V149.49Z" fill="white" stroke="#263238" stroke-linecap="round" stroke-linejoin="round"/>
<path d="M134 141.21C134 141.21 137.27 150.33 137.13 151.01C136.99 151.69 135.39 153.71 133.52 153.54C131.65 153.37 130.72 151.18 130.72 151.18" stroke="#263238" stroke-linecap="round" stroke-linejoin="round"/>
<path d="M134.92 140C134.831 139.695 134.811 139.373 134.864 139.06C134.916 138.746 135.039 138.448 135.222 138.188C135.406 137.929 135.646 137.714 135.924 137.56C136.203 137.406 136.512 137.317 136.83 137.3C137.875 137.249 138.919 137.419 139.894 137.798C140.869 138.177 141.754 138.757 142.49 139.5" stroke="#263238" stroke-width="2" stroke-linecap="round" stroke-linejoin="round"/>
<path d="M130 139C129.517 138.641 128.961 138.394 128.371 138.276C127.782 138.159 127.173 138.174 126.59 138.32C124.59 138.83 122.18 141.87 122.21 142.38" stroke="#263238" stroke-width="2" stroke-linecap="round" stroke-linejoin="round"/>
<path d="M129.35 143.92C129.35 144.76 129 145.44 128.48 145.44C127.96 145.44 127.48 144.76 127.48 143.92C127.48 143.08 127.83 142.4 128.34 142.4C128.85 142.4 129.31 143.08 129.35 143.92Z" fill="#263238"/>
<path d="M139.12 143.41C139.12 144.25 138.77 144.93 138.26 144.93C137.75 144.93 137.26 144.25 137.26 143.41C137.26 142.57 137.61 141.89 138.12 141.89C138.63 141.89 139.08 142.57 139.12 143.41Z" fill="#263238"/>
<path d="M130.44 157.26C130.44 157.26 133.71 158.78 138.68 156.58" stroke="white" stroke-width="2" stroke-linecap="round" stroke-linejoin="round"/>
<path d="M118.41 172C118.41 172 123.41 189.22 128.78 200.54C134.15 211.86 138.41 219.79 138.41 219.79C138.41 219.79 146.5 192.6 146.46 183.79C146.42 174.98 146.37 174 146.37 174" stroke="#263238" stroke-linecap="round" stroke-linejoin="round"/>
<path d="M144.4 236.96H134.09L133.34 219.74H143.64L144.4 236.96Z" fill="white" stroke="#263238" stroke-linecap="round" stroke-linejoin="round"/>
<path d="M220.14 403.81C220.14 403.81 225.54 408.2 229.42 409.38C233.3 410.56 235.33 411.24 234.49 413.1C233.65 414.96 230.94 415.63 223.01 415.8C215.08 415.97 213.55 414.28 210.51 413.43C207.47 412.58 203.25 413.43 201.9 411.75C200.55 410.07 201.05 407.52 201.05 404.82C201.05 402.12 212.71 400.94 215.75 401.95C217.276 402.411 218.748 403.034 220.14 403.81V403.81Z" fill="white" stroke="#263238" stroke-linecap="round" stroke-linejoin="round"/>
<path d="M204.77 407.19C204.77 407.19 209.84 412.59 214.06 414.95C218.28 417.31 220.64 419.01 219.63 420.19C218.62 421.37 215.41 422.89 206.96 422.05C198.51 421.21 196.83 419.34 192.78 416.47C188.73 413.6 186.87 413.94 185.52 412.42C184.17 410.9 184.17 407.52 184.17 407.52L204.77 407.19Z" fill="white" stroke="#263238" stroke-linecap="round" stroke-linejoin="round"/>
<path d="M230.1 282.22C230.1 282.22 227.1 322.41 225.88 329.67C224.66 336.93 223.51 340.99 223.68 346.05C223.85 351.11 225.37 365.64 222.33 374.26C219.29 382.88 219.33 393.34 219.63 396.38C219.93 399.42 220.98 403.47 220.81 404.15C220.64 404.83 215.75 407.52 212.2 408.2C209.969 408.61 207.708 408.834 205.44 408.87C202.004 410.083 198.435 410.879 194.81 411.24C189.74 411.58 182.81 410.06 182.81 410.06C182.81 410.06 182.81 397.56 182.13 389.45C181.45 381.34 179.13 368.35 181.96 358.55C184.79 348.75 184.16 343.55 183.96 340.31C183.76 337.07 183.96 322.58 183.79 322.07C183.62 321.56 182.61 279.35 182.61 279.35C182.61 279.35 201.01 282.05 213.34 280.87C225.67 279.69 228.88 279.69 228.88 279.69C228.88 279.69 231.62 276.65 230.1 282.22Z" fill="#263238" stroke="#263238" stroke-linecap="round" stroke-linejoin="round"/>
<path d="M206.29 406.51C206.281 403.777 205.945 401.054 205.29 398.4C204.29 395.03 204.1 383.04 204.61 378.14C205.12 373.24 207.61 360.92 207.61 353.99C207.61 347.06 208.29 336.43 208.29 336.43" stroke="white" stroke-linecap="round" stroke-linejoin="round"/>
<path d="M241.24 332.71L222 332.54C221.16 332.54 221.16 319.71 221.16 319.71L241.24 332.71Z" fill="white" stroke="#263238" stroke-linecap="round" stroke-linejoin="round"/>
<path d="M200.55 284.59C200.55 284.59 219.8 285.77 230.61 283.91L226.89 193.06C226.89 193.06 224.36 188.84 217.6 186.47C210.84 184.1 202.74 187.47 199.87 190.69C197 193.91 199.03 284.25 199.03 284.25L200.55 284.59Z" fill="#00A7E3" stroke="#263238" stroke-linecap="round" stroke-linejoin="round"/>
<path d="M201.39 186.47C201.39 186.47 182.31 196.1 179.44 197.79C176.57 199.48 176.44 205.55 176.44 208.43C176.44 211.31 177.28 339.13 177.28 339.13C184.502 339.602 191.752 338.862 198.73 336.94C205.611 335.14 212.087 332.044 217.81 327.82L214.6 259.09L211 198.8C211 198.8 208.82 182.08 201.39 186.47Z" fill="white" stroke="#263238" stroke-linecap="round" stroke-linejoin="round"/>
<path d="M207.13 180.22C207.13 180.22 202.74 180.73 200.88 183.22C199.79 184.689 198.989 186.352 198.52 188.12L196.83 203.32L202.57 201.97L199.7 208.72C199.7 208.72 202.57 217.17 205.78 224.26C208.99 231.35 213.72 245.87 213.72 245.87L211.52 200.45C211.52 200.45 211.52 187.28 210.52 184.45C209.52 181.62 208.48 180.22 207.13 180.22Z" fill="white" stroke="#263238" stroke-linecap="round" stroke-linejoin="round"/>
<path d="M218.11 189.51L221.49 327.14L241.24 332.71L238.37 227.85C238.37 227.85 238.88 200.85 237.19 197.11C235.5 193.37 220.31 185.8 218.79 186C217.27 186.2 218.11 189.51 218.11 189.51Z" fill="white" stroke="#263238" stroke-linecap="round" stroke-linejoin="round"/>
<path d="M218.11 182.59C219.34 182.89 220.49 183.453 221.481 184.24C222.472 185.027 223.28 186.02 223.85 187.15C225.54 190.86 229.93 202.35 229.93 202.35L224.36 203.02L230.27 207.24L219.8 246.59L218.62 204L217.62 186.44C217.62 186.44 216.42 183.6 218.11 182.59Z" fill="white" stroke="#263238" stroke-linecap="round" stroke-linejoin="round"/>
<path d="M205.78 174.48C205.78 174.48 206.46 179.38 205.44 182.08C204.42 184.78 208.65 193.23 210.34 198.46C212.03 203.69 213.72 207.92 214.73 207.41C215.74 206.9 219.29 187.15 219.12 184.61C218.95 182.07 220.64 174.48 220.64 174.48C220.64 174.48 211.35 177.18 205.78 174.48Z" fill="white" stroke="#263238" stroke-linecap="round" stroke-linejoin="round"/>
<path d="M193.92 169.33C199.238 169.33 203.55 164.826 203.55 159.27C203.55 153.714 199.238 149.21 193.92 149.21C188.601 149.21 184.29 153.714 184.29 159.27C184.29 164.826 188.601 169.33 193.92 169.33Z" fill="#263238" stroke="#263238" stroke-linecap="round" stroke-linejoin="round"/>
<path d="M198.86 164C198.86 164 197.17 159.61 195.14 161.3C193.11 162.99 195.14 166.7 196.66 168.9C198.18 171.1 201.05 170.08 200.72 167.9C200.447 166.461 199.806 165.118 198.86 164V164Z" fill="white" stroke="#263238" stroke-linecap="round" stroke-linejoin="round"/>
<path d="M225 161.27C225 161.27 225.85 157.05 227 159.92C227.509 161.044 227.744 162.274 227.684 163.506C227.625 164.739 227.274 165.94 226.66 167.01C225.66 168.7 225.82 168.53 225.48 167.01C225.214 165.107 225.054 163.191 225 161.27V161.27Z" fill="white" stroke="#263238" stroke-linecap="round" stroke-linejoin="round"/>
<path d="M196.49 155.87C196.49 155.87 199.7 171.4 201.73 175.12C203.76 178.84 210.51 185.12 216.59 182.55C222.67 179.98 226.05 175.29 226.05 169.55C226.05 163.81 226.89 156.55 225.88 150.29C225.37 147.44 223.903 144.848 221.721 142.945C219.539 141.041 216.773 139.939 213.88 139.82C208.47 139.65 200.03 142.69 198.34 148.1C197.464 150.621 196.844 153.224 196.49 155.87V155.87Z" fill="white" stroke="#263238" stroke-linecap="round" stroke-linejoin="round"/>
<path d="M196.66 161.61C196.66 161.61 206.12 157.89 212.2 153.33C218.28 148.77 220.14 145.4 220.14 145.4C220.14 145.4 223.01 153.16 224.19 155.7C225.37 158.24 226.38 161.1 226.38 161.1C226.38 161.1 228.24 157.89 228.24 151.1C228.24 144.31 226.38 138.94 219.24 135.39C212.1 131.84 200.5 134.04 195.24 139.11C189.98 144.18 191.02 152.45 192.37 155.66C193.426 157.888 194.88 159.904 196.66 161.61Z" fill="#263238" stroke="#263238" stroke-linecap="round" stroke-linejoin="round"/>
<path d="M217.6 155.36C217.6 155.36 216.6 155.53 216.6 158.57C216.6 161.61 217.6 166.67 217.44 167.35C217.28 168.03 215.44 170.05 214.24 168.87" stroke="#263238" stroke-linecap="round" stroke-linejoin="round"/>
<path d="M210 171.91C210 171.91 214.39 173.77 220 170.39" stroke="#263238" stroke-linecap="round" stroke-linejoin="round"/>
<path d="M218.28 155C218.28 155 221.84 153.64 224.19 155.68" stroke="#263238" stroke-linecap="round" stroke-linejoin="round"/>
<path d="M212.37 155.7C210.824 155.241 209.192 155.155 207.607 155.449C206.021 155.742 204.528 156.408 203.25 157.39" stroke="#263238" stroke-linecap="round" stroke-linejoin="round"/>
<path d="M210 160.59C210 161.59 209.59 162.45 209.08 162.45C208.57 162.45 208.15 161.62 208.15 160.59C208.15 159.56 208.56 158.74 209.08 158.74C209.6 158.74 210 159.57 210 160.59Z" fill="#263238"/>
<path d="M221 159.92C221 160.92 220.58 161.78 220.07 161.78C219.56 161.78 219.14 160.95 219.14 159.92C219.14 158.89 219.56 158.06 220.07 158.06C220.58 158.06 221 158.89 221 159.92Z" fill="#263238"/>
<path d="M231.79 228.35L228.79 223.45C227.94 222.1 224.06 222.61 222.2 222.61C221.233 222.711 220.303 223.034 219.483 223.555C218.662 224.075 217.973 224.779 217.47 225.61C216.8 226.96 213.76 229.16 214.94 230.51C216.12 231.86 219.33 231.01 219.84 231.35C220.35 231.69 224.57 234.56 226.09 235.07C226.898 235.367 227.763 235.48 228.62 235.4L231.79 228.35Z" stroke="#263238" stroke-linecap="round" stroke-linejoin="round"/>
<path d="M236.35 196.1C238.048 196.884 239.568 198.007 240.817 199.4C242.065 200.793 243.016 202.426 243.61 204.2C245.47 210.11 251.71 249.46 250.36 253.2C249.01 256.94 245.64 259.78 239.73 257.76C233.82 255.74 224.73 246.1 224.73 246.1L231.82 228.37L237.39 231.24L236.21 215.37" fill="white"/>
<path d="M236.35 196.1C238.048 196.884 239.568 198.007 240.817 199.4C242.065 200.793 243.016 202.426 243.61 204.2C245.47 210.11 251.71 249.46 250.36 253.2C249.01 256.94 245.64 259.78 239.73 257.76C233.82 255.74 224.73 246.1 224.73 246.1L231.82 228.37L237.39 231.24L236.21 215.37" stroke="#263238" stroke-linecap="round" stroke-linejoin="round"/>
<path d="M237.36 231.22C237.36 231.22 246.31 236.46 247.16 238.32" stroke="#263238" stroke-linecap="round" stroke-linejoin="round"/>
<path d="M226.04 207.58H193.45V253.18H226.04V207.58Z" fill="#263238" stroke="#263238" stroke-linecap="round" stroke-linejoin="round"/>
<path d="M208.15 239.33C208.15 239.33 214.39 235.95 216.25 234.09C218.11 232.23 218.45 232.09 219.46 232.09C221.945 232.089 224.428 231.919 226.89 231.58C227.89 231.24 227.4 233.58 226.89 234.11C226.38 234.64 223.18 235.3 223.18 235.3C223.18 235.3 228.58 234.79 228.75 236.48C228.871 236.965 228.856 237.473 228.706 237.95C228.556 238.426 228.277 238.852 227.9 239.18L227.4 239.69C227.4 239.69 227.9 243.23 227.4 244.92C226.9 246.61 225.88 247.12 223.68 247.45C220.744 247.638 217.796 247.47 214.9 246.95C213.21 246.61 207.47 247.79 207.47 247.79L208.15 239.33Z" fill="white" stroke="#263238" stroke-linecap="round" stroke-linejoin="round"/>
<path d="M185.69 194.75C185.69 194.75 175.69 196.94 174.03 197.95C172.37 198.96 166.77 239.16 165.59 245.95C164.41 252.74 176.06 254.06 179.59 255.41C183.12 256.76 209 258.75 209 258.75L209.34 237.81L191.44 233.25L191.27 204.37" fill="white"/>
<path d="M185.69 194.75C185.69 194.75 175.69 196.94 174.03 197.95C172.37 198.96 166.77 239.16 165.59 245.95C164.41 252.74 176.06 254.06 179.59 255.41C183.12 256.76 209 258.75 209 258.75L209.34 237.81L191.44 233.25L191.27 204.37" stroke="#263238" stroke-linecap="round" stroke-linejoin="round"/>
<path d="M191.43 233.25C191.43 233.25 185.18 230.38 181.13 231.9C177.08 233.42 173.7 241.19 173.7 241.19" stroke="#263238" stroke-linecap="round" stroke-linejoin="round"/>
<path d="M184.5 231.22C184.5 231.22 178.59 230.88 175.72 232.07C173.955 232.817 172.392 233.972 171.16 235.44" stroke="#263238" stroke-linecap="round" stroke-linejoin="round"/>
<path d="M216.59 206.06H205.11V209.78H216.59V206.06Z" fill="white" stroke="#263238" stroke-linecap="round" stroke-linejoin="round"/>
</svg>
